<svg width="437" height="320" viewBox="0 0 437 320" fill="none" xmlns="http://www.w3.org/2000/svg">
<rect width="437" height="320" rx="45" fill="#101116"/>
<line x1="42" y1="53.5" x2="392" y2="53.5" stroke="#1D1F29" stroke-dasharray="10 10"/>
<line x1="42" y1="106.5" x2="392" y2="106.5" stroke="#1D1F29" stroke-dasharray="10 10"/>
<line x1="42" y1="159.5" x2="392" y2="159.5" stroke="#1D1F29" stroke-dasharray="10 10"/>
<line x1="42" y1="212.5" x2="392" y2="212.5" stroke="#1D1F29" stroke-dasharray="10 10"/>
<line x1="42" y1="265.5" x2="392" y2="265.5" stroke="#1D1F29" stroke-dasharray="10 10"/>
<path d="M53 214.5L60.0684 224.139C61.5961 226.222 64.8673 225.529 65.4185 223.005L73.387 186.518C73.4617 186.175 73.5959 185.849 73.7834 185.552L80.4795 174.98C81.5544 173.283 84.0882 173.473 84.8972 175.312V175.312C85.9188 177.634 89.347 177.147 89.6823 174.633L92.4373 153.97C92.4789 153.659 92.569 153.356 92.7046 153.072L94.6973 148.906C95.8745 146.444 99.4601 146.705 100.269 149.311L107 171L114.259 213.463C114.82 216.746 119.512 216.807 120.159 213.54L126.401 182C126.467 181.669 126.587 181.352 126.758 181.061L130.391 174.885C130.999 173.852 132.338 173.524 133.355 174.159V174.159C134.475 174.859 135.956 174.381 136.455 173.157L138.292 168.647C139.297 166.181 142.778 166.149 143.828 168.598L148.5 179.5L155.309 193.119C155.436 193.372 155.526 193.641 155.577 193.919L160.476 220.643C160.768 222.236 162.271 223.309 163.872 223.069L169.975 222.154C170.639 222.054 171.25 221.735 171.711 221.247L177.799 214.801C178.786 213.756 180.377 213.558 181.59 214.33L183.794 215.733C184.557 216.218 185.06 217.022 185.164 217.92L188.882 250.148C189.085 251.901 191.389 252.409 192.309 250.903V250.903C193.216 249.419 195.484 249.886 195.73 251.608L198.395 270.268C198.464 270.749 198.649 271.206 198.933 271.6L201.12 274.628C202.631 276.719 205.902 276.055 206.477 273.54L208.467 264.832C208.779 263.467 209.992 262.5 211.392 262.5H212.079C213.492 262.5 214.713 261.515 215.012 260.134L221.988 227.866C222.287 226.485 223.508 225.5 224.921 225.5H225.961C227.192 225.5 228.298 224.748 228.75 223.604L237.299 202.009C237.432 201.672 237.625 201.363 237.868 201.095L238.58 200.312C240.221 198.507 243.216 199.312 243.732 201.696L246.12 212.743C246.354 213.825 247.164 214.69 248.228 214.994L250.774 215.721C252.304 216.158 253.909 215.325 254.431 213.822L256.567 207.683C256.985 206.481 258.542 206.172 259.388 207.123V207.123C260.281 208.128 261.935 207.717 262.253 206.411L271.301 169.316C271.431 168.782 271.706 168.294 272.094 167.906L275.353 164.647C276.672 163.328 278.89 163.653 279.775 165.296V165.296C280.644 166.911 282.81 167.259 284.142 165.997L288.192 162.16C289.615 160.812 291.927 161.168 292.878 162.881L296.982 170.268C298.344 172.719 302.026 172.128 302.551 169.374L310.091 129.878C310.6 127.216 314.097 126.539 315.562 128.818L319.278 134.6C320.002 135.725 321.383 136.235 322.664 135.851L328.87 133.989C329.819 133.704 330.837 134.126 331.307 134.999V134.999C332.228 136.709 334.78 136.344 335.186 134.445L342.512 100.128C342.971 97.9761 345.514 97.0344 347.264 98.3679L350.31 100.689C352.042 102.008 354.558 101.102 355.051 98.9822L365.979 51.989C366.704 48.872 371.153 48.9041 371.833 52.0312L376.349 72.8036C376.448 73.2615 376.654 73.6897 376.948 74.0539L385 84" stroke="#4BFF86" stroke-width="2"/>
<path d="M60.0684 224.139L58.4192 221.89C56.7046 219.552 53 220.765 53 223.664V277C53 278.657 54.3431 280 56 280H382C383.657 280 385 278.657 385 277V85.0621C385 84.3749 384.764 83.7086 384.332 83.1745L376.948 74.0539C376.654 73.6897 376.448 73.2615 376.349 72.8036L371.833 52.0312C371.153 48.9041 366.704 48.872 365.979 51.989L355.051 98.9822C354.558 101.102 352.042 102.008 350.31 100.689L347.264 98.3679C345.514 97.0344 342.971 97.9761 342.512 100.128L335.186 134.445C334.78 136.344 332.228 136.709 331.307 134.999C330.837 134.126 329.819 133.704 328.87 133.989L322.664 135.851C321.383 136.235 320.002 135.725 319.278 134.6L315.562 128.818C314.097 126.539 310.6 127.216 310.091 129.878L302.551 169.374C302.026 172.128 298.344 172.719 296.982 170.268L292.878 162.881C291.927 161.168 289.615 160.812 288.192 162.16L284.142 165.997C282.81 167.259 280.644 166.911 279.775 165.296C278.89 163.653 276.672 163.328 275.353 164.647L272.094 167.906C271.706 168.294 271.431 168.782 271.301 169.316L262.253 206.411C261.935 207.717 260.281 208.128 259.388 207.123C258.542 206.172 256.985 206.481 256.567 207.683L254.431 213.822C253.909 215.325 252.304 216.158 250.774 215.721L248.228 214.994C247.164 214.69 246.354 213.825 246.12 212.743L243.732 201.696C243.216 199.312 240.221 198.507 238.58 200.312L237.868 201.095C237.625 201.363 237.432 201.672 237.299 202.009L228.75 223.604C228.298 224.748 227.192 225.5 225.961 225.5H224.921C223.508 225.5 222.287 226.485 221.988 227.866L215.012 260.134C214.713 261.515 213.492 262.5 212.079 262.5H211.392C209.992 262.5 208.779 263.467 208.467 264.832L206.477 273.54C205.902 276.055 202.631 276.719 201.12 274.628L198.933 271.6C198.649 271.206 198.464 270.749 198.395 270.268L195.73 251.608C195.484 249.886 193.216 249.419 192.309 250.903C191.389 252.409 189.085 251.901 188.882 250.148L185.164 217.92C185.06 217.022 184.557 216.218 183.794 215.733L181.59 214.33C180.377 213.558 178.786 213.756 177.799 214.801L171.711 221.247C171.25 221.735 170.639 222.054 169.975 222.154L163.872 223.069C162.271 223.309 160.768 222.236 160.476 220.643L155.577 193.919C155.526 193.641 155.436 193.372 155.309 193.119L148.5 179.5L143.828 168.598C142.778 166.149 139.297 166.181 138.292 168.647L136.455 173.157C135.956 174.381 134.475 174.859 133.355 174.159C132.338 173.524 130.999 173.852 130.391 174.885L126.758 181.061C126.587 181.352 126.467 181.669 126.401 182L120.159 213.54C119.512 216.807 114.82 216.746 114.259 213.463L107 171L100.269 149.311C99.4601 146.705 95.8745 146.444 94.6973 148.906L92.7046 153.072C92.569 153.356 92.4789 153.659 92.4373 153.97L89.6823 174.633C89.347 177.147 85.9188 177.634 84.8972 175.312C84.0882 173.473 81.5544 173.283 80.4795 174.98L73.7834 185.552C73.5959 185.849 73.4617 186.175 73.387 186.518L65.4185 223.005C64.8673 225.529 61.5961 226.222 60.0684 224.139Z" fill="url(#paint0_linear_1_775)" fill-opacity="0.2"/>
<rect x="259" y="61" width="107" height="50" rx="8" fill="#25293D"/>
<path d="M269.466 75.174L266.708 76.98V75.832L269.48 73.914H270.684V83H269.466V75.174ZM277.167 83.14C276.028 83.14 275.207 83.0047 274.703 82.734C274.199 82.454 273.947 81.9967 273.947 81.362V79.668C273.947 79.304 274.087 79.0007 274.367 78.758C274.656 78.506 275.039 78.324 275.515 78.212V78.156C275.095 78.0627 274.778 77.9133 274.563 77.708C274.358 77.5027 274.255 77.218 274.255 76.854V75.44C274.255 75.1787 274.297 74.9547 274.381 74.768C274.465 74.5813 274.605 74.404 274.801 74.236C275.202 73.9187 275.991 73.76 277.167 73.76C278.343 73.76 279.132 73.9187 279.533 74.236C279.729 74.404 279.869 74.5813 279.953 74.768C280.037 74.9547 280.079 75.1787 280.079 75.44V76.854C280.079 77.218 279.976 77.5027 279.771 77.708C279.566 77.9133 279.253 78.0627 278.833 78.156V78.212C279.309 78.324 279.687 78.506 279.967 78.758C280.256 79.0007 280.401 79.304 280.401 79.668V81.334C280.401 81.9873 280.149 82.454 279.645 82.734C279.15 83.0047 278.324 83.14 277.167 83.14ZM277.167 77.904C277.783 77.904 278.208 77.8387 278.441 77.708C278.684 77.5773 278.805 77.3347 278.805 76.98V75.51C278.805 75.1647 278.679 74.922 278.427 74.782C278.175 74.642 277.755 74.572 277.167 74.572C276.579 74.572 276.159 74.642 275.907 74.782C275.655 74.922 275.529 75.1647 275.529 75.51V76.98C275.529 77.3347 275.646 77.5773 275.879 77.708C276.122 77.8387 276.551 77.904 277.167 77.904ZM277.167 82.328C277.848 82.328 278.329 82.258 278.609 82.118C278.889 81.978 279.029 81.74 279.029 81.404V79.71C279.029 79.234 278.828 78.9353 278.427 78.814C278.231 78.758 278.049 78.7253 277.881 78.716C277.713 78.6973 277.475 78.688 277.167 78.688C276.859 78.688 276.626 78.6973 276.467 78.716C276.308 78.7253 276.126 78.758 275.921 78.814C275.51 78.9353 275.305 79.234 275.305 79.71V81.404C275.305 81.74 275.445 81.978 275.725 82.118C276.005 82.258 276.486 82.328 277.167 82.328ZM282.432 81.488H283.916L282.6 84.568H281.788L282.432 81.488ZM289.29 75.174L286.532 76.98V75.832L289.304 73.914H290.508V83H289.29V75.174ZM293.953 81.376C293.953 81.1147 293.995 80.872 294.079 80.648C294.173 80.4147 294.289 80.2187 294.429 80.06C294.541 79.9293 294.709 79.7893 294.933 79.64C295.167 79.4813 295.386 79.3507 295.591 79.248C295.769 79.1547 296.002 79.0473 296.291 78.926L297.803 78.254C298.401 77.9927 298.699 77.5867 298.699 77.036V75.79C298.699 75.3607 298.569 75.076 298.307 74.936C298.046 74.7867 297.589 74.712 296.935 74.712C296.291 74.712 295.405 74.81 294.275 75.006V74.026C295.218 73.8487 296.193 73.76 297.201 73.76C298.209 73.76 298.937 73.914 299.385 74.222C299.833 74.5207 300.057 75.0247 300.057 75.734V77.218C300.057 77.554 300.001 77.834 299.889 78.058C299.777 78.2727 299.595 78.4687 299.343 78.646C299.101 78.814 298.741 79.0053 298.265 79.22L296.165 80.186C295.549 80.466 295.241 80.8767 295.241 81.418V82.02H300.057V83H293.953V81.376ZM305.112 83.14C304.702 83.14 304.37 83.126 304.118 83.098C303.866 83.07 303.605 83.014 303.334 82.93C303.045 82.846 302.816 82.7247 302.648 82.566C302.48 82.398 302.34 82.1647 302.228 81.866C302.116 81.5673 302.06 81.2173 302.06 80.816V76.224C302.06 75.804 302.126 75.4353 302.256 75.118C302.396 74.8007 302.574 74.5487 302.788 74.362C302.975 74.2033 303.227 74.0773 303.544 73.984C303.862 73.8813 304.179 73.816 304.496 73.788C304.851 73.7693 305.173 73.76 305.462 73.76C306.032 73.76 306.797 73.802 307.758 73.886V74.838C306.797 74.7167 305.971 74.656 305.28 74.656C304.758 74.656 304.361 74.6933 304.09 74.768C303.82 74.8427 303.619 74.992 303.488 75.216C303.367 75.4307 303.306 75.7573 303.306 76.196V77.624H305.364C305.831 77.624 306.181 77.6333 306.414 77.652C306.648 77.6707 306.895 77.708 307.156 77.764C307.418 77.82 307.609 77.9133 307.73 78.044C307.861 78.1747 307.973 78.3613 308.066 78.604C308.15 78.8373 308.192 79.1313 308.192 79.486V80.816C308.192 81.824 307.875 82.4773 307.24 82.776C306.932 82.916 306.624 83.0093 306.316 83.056C306.008 83.112 305.607 83.14 305.112 83.14ZM305.14 82.314C305.635 82.314 306.004 82.2813 306.246 82.216C306.498 82.1413 306.676 82.006 306.778 81.81C306.89 81.6047 306.946 81.2967 306.946 80.886V79.528C306.946 79.22 306.9 78.9913 306.806 78.842C306.713 78.6833 306.54 78.576 306.288 78.52C306.036 78.464 305.649 78.436 305.126 78.436H303.306V80.886C303.306 81.2967 303.362 81.6047 303.474 81.81C303.586 82.006 303.768 82.1413 304.02 82.216C304.272 82.2813 304.646 82.314 305.14 82.314ZM310.168 81.488H311.792V83H310.168V81.488ZM317.236 75.174L314.478 76.98V75.832L317.25 73.914H318.454V83H317.236V75.174ZM326.141 81.012H321.619V79.906L325.735 73.914H327.303V80.046H328.283V81.012H327.303V83H326.141V81.012ZM326.141 80.046V75.02L322.739 80.046H326.141ZM336.956 83.14C336.462 83.14 336.028 83.1073 335.654 83.042C335.29 82.9767 334.931 82.8647 334.576 82.706C334.203 82.538 333.914 82.2813 333.708 81.936C333.512 81.5907 333.414 81.1707 333.414 80.676V73.914H334.716V80.662C334.716 81.2313 334.908 81.6373 335.29 81.88C335.673 82.1133 336.238 82.23 336.984 82.23C337.731 82.23 338.286 82.1133 338.65 81.88C339.024 81.6373 339.21 81.2313 339.21 80.662V73.914H340.512V80.676C340.512 82.3187 339.327 83.14 336.956 83.14ZM345.493 83.14C344.719 83.14 343.795 83.0653 342.721 82.916V81.782C343.804 82.0153 344.756 82.132 345.577 82.132C346.268 82.132 346.772 82.0573 347.089 81.908C347.407 81.7493 347.565 81.46 347.565 81.04V79.864C347.565 79.472 347.453 79.1967 347.229 79.038C347.005 78.8793 346.613 78.8 346.053 78.8H344.989C344.103 78.8 343.473 78.6227 343.099 78.268C342.726 77.9133 342.539 77.3627 342.539 76.616V75.888C342.539 75.3933 342.647 74.992 342.861 74.684C343.085 74.376 343.454 74.1473 343.967 73.998C344.49 73.8487 345.204 73.774 346.109 73.774C346.716 73.774 347.495 73.8253 348.447 73.928V74.95C347.383 74.7913 346.571 74.712 346.011 74.712C345.143 74.712 344.569 74.796 344.289 74.964C344 75.1413 343.855 75.4353 343.855 75.846V76.882C343.855 77.1993 343.967 77.4327 344.191 77.582C344.425 77.722 344.821 77.792 345.381 77.792H346.473C347.099 77.792 347.584 77.8667 347.929 78.016C348.284 78.1653 348.531 78.394 348.671 78.702C348.821 79.0007 348.895 79.4067 348.895 79.92V80.578C348.895 81.222 348.774 81.7307 348.531 82.104C348.298 82.4773 347.934 82.7433 347.439 82.902C346.945 83.0607 346.296 83.14 345.493 83.14ZM350.846 73.914H354.458C357.006 73.914 358.28 74.782 358.28 76.518V80.536C358.28 82.1787 357.011 83 354.472 83H350.846V73.914ZM354.374 82.076C356.11 82.076 356.978 81.5533 356.978 80.508V76.504C356.978 76.168 356.908 75.8833 356.768 75.65C356.628 75.4167 356.432 75.244 356.18 75.132C355.928 75.0293 355.667 74.9593 355.396 74.922C355.125 74.8753 354.808 74.852 354.444 74.852H352.204V82.076H354.374Z" fill="white"/>
<path d="M293.192 98.12C292.52 98.12 291.764 98.044 290.924 97.892V97.028C291.876 97.228 292.672 97.328 293.312 97.328C294.376 97.328 294.908 97.028 294.908 96.428V95.096C294.908 94.768 294.732 94.552 294.38 94.448C294.212 94.408 294.06 94.384 293.924 94.376C293.796 94.36 293.628 94.352 293.42 94.352H291.92V93.608H293.216C293.424 93.608 293.592 93.604 293.72 93.596C293.848 93.58 293.996 93.548 294.164 93.5C294.34 93.46 294.476 93.384 294.572 93.272C294.668 93.16 294.716 93.016 294.716 92.84V91.448C294.716 91.04 294.236 90.836 293.276 90.836C292.636 90.836 291.904 90.9 291.08 91.028V90.2C291.768 90.128 292.496 90.092 293.264 90.092C294.152 90.092 294.796 90.192 295.196 90.392C295.604 90.584 295.808 90.916 295.808 91.388V92.888C295.808 93.136 295.708 93.344 295.508 93.512C295.308 93.672 295.052 93.776 294.74 93.824V93.872C294.932 93.904 295.088 93.94 295.208 93.98C295.336 94.012 295.472 94.064 295.616 94.136C295.896 94.28 296.036 94.532 296.036 94.892V96.452C296.036 96.724 295.976 96.968 295.856 97.184C295.736 97.4 295.584 97.568 295.4 97.688C295.24 97.8 295.028 97.892 294.764 97.964C294.5 98.028 294.24 98.072 293.984 98.096C293.68 98.112 293.416 98.12 293.192 98.12ZM297.801 92.192H299.193V93.488H297.801V92.192ZM297.801 96.704H299.193V98H297.801V96.704ZM303.223 98.12C302.551 98.12 301.795 98.044 300.955 97.892V97.028C301.907 97.228 302.703 97.328 303.343 97.328C304.407 97.328 304.939 97.028 304.939 96.428V95.096C304.939 94.768 304.763 94.552 304.411 94.448C304.243 94.408 304.091 94.384 303.955 94.376C303.827 94.36 303.659 94.352 303.451 94.352H301.951V93.608H303.247C303.455 93.608 303.623 93.604 303.751 93.596C303.879 93.58 304.027 93.548 304.195 93.5C304.371 93.46 304.507 93.384 304.603 93.272C304.699 93.16 304.747 93.016 304.747 92.84V91.448C304.747 91.04 304.267 90.836 303.307 90.836C302.667 90.836 301.935 90.9 301.111 91.028V90.2C301.799 90.128 302.527 90.092 303.295 90.092C304.183 90.092 304.827 90.192 305.227 90.392C305.635 90.584 305.839 90.916 305.839 91.388V92.888C305.839 93.136 305.739 93.344 305.539 93.512C305.339 93.672 305.083 93.776 304.771 93.824V93.872C304.963 93.904 305.119 93.94 305.239 93.98C305.367 94.012 305.503 94.064 305.647 94.136C305.927 94.28 306.067 94.532 306.067 94.892V96.452C306.067 96.724 306.007 96.968 305.887 97.184C305.767 97.4 305.615 97.568 305.431 97.688C305.271 97.8 305.059 97.892 304.795 97.964C304.531 98.028 304.271 98.072 304.015 98.096C303.711 98.112 303.447 98.12 303.223 98.12ZM310.184 98.12C309.512 98.12 308.756 98.044 307.916 97.892V97.028C308.868 97.228 309.664 97.328 310.304 97.328C311.368 97.328 311.9 97.028 311.9 96.428V95.096C311.9 94.768 311.724 94.552 311.372 94.448C311.204 94.408 311.052 94.384 310.916 94.376C310.788 94.36 310.62 94.352 310.412 94.352H308.912V93.608H310.208C310.416 93.608 310.584 93.604 310.712 93.596C310.84 93.58 310.988 93.548 311.156 93.5C311.332 93.46 311.468 93.384 311.564 93.272C311.66 93.16 311.708 93.016 311.708 92.84V91.448C311.708 91.04 311.228 90.836 310.268 90.836C309.628 90.836 308.896 90.9 308.072 91.028V90.2C308.76 90.128 309.488 90.092 310.256 90.092C311.144 90.092 311.788 90.192 312.188 90.392C312.596 90.584 312.8 90.916 312.8 91.388V92.888C312.8 93.136 312.7 93.344 312.5 93.512C312.3 93.672 312.044 93.776 311.732 93.824V93.872C311.924 93.904 312.08 93.94 312.2 93.98C312.328 94.012 312.464 94.064 312.608 94.136C312.888 94.28 313.028 94.532 313.028 94.892V96.452C313.028 96.724 312.968 96.968 312.848 97.184C312.728 97.4 312.576 97.568 312.392 97.688C312.232 97.8 312.02 97.892 311.756 97.964C311.492 98.028 311.232 98.072 310.976 98.096C310.672 98.112 310.408 98.12 310.184 98.12ZM319.995 90.212H321.339L324.363 98H323.151L322.263 95.636H318.927L318.051 98H316.899L319.995 90.212ZM321.975 94.832L320.655 91.316H320.547L319.227 94.832H321.975ZM325.555 90.212H327.295L329.791 96.692L329.827 96.704L332.191 90.212H333.871V98H332.851V91.412H332.791L330.283 98H329.239L326.659 91.412H326.599V98H325.555V90.212Z" fill="#79809E"/>
<path d="M312.5 119L307.737 110.75L317.263 110.75L312.5 119Z" fill="#25293D"/>
<g filter="url(#filter0_d_1_775)">
<circle cx="312.5" cy="128.5" r="5.5" fill="#4BFF86"/>
</g>
<defs>
<filter id="filter0_d_1_775" x="298" y="114" width="29" height="29" filterUnits="userSpaceOnUse" color-interpolation-filters="sRGB">
<feFlood flood-opacity="0" result="BackgroundImageFix"/>
<feColorMatrix in="SourceAlpha" type="matrix" values="0 0 0 0 0 0 0 0 0 0 0 0 0 0 0 0 0 0 127 0" result="hardAlpha"/>
<feOffset/>
<feGaussianBlur stdDeviation="4.5"/>
<feComposite in2="hardAlpha" operator="out"/>
<feColorMatrix type="matrix" values="0 0 0 0 0.294118 0 0 0 0 1 0 0 0 0 0.52549 0 0 0 0.5 0"/>
<feBlend mode="normal" in2="BackgroundImageFix" result="effect1_dropShadow_1_775"/>
<feBlend mode="normal" in="SourceGraphic" in2="effect1_dropShadow_1_775" result="shape"/>
</filter>
<linearGradient id="paint0_linear_1_775" x1="219" y1="39" x2="219" y2="280" gradientUnits="userSpaceOnUse">
<stop stop-color="#4BFF86"/>
<stop offset="1" stop-color="#4BFF86" stop-opacity="0"/>
</linearGradient>
</defs>
</svg>
