<svg width="22" height="22" viewBox="0 0 22 22" fill="none" xmlns="http://www.w3.org/2000/svg">
<path d="M19.404 7.33337C18.6901 5.69846 17.5147 4.30731 16.022 3.33039C14.5293 2.35347 12.784 1.83322 11 1.83337C6.24707 1.83337 2.33748 5.45146 1.87915 10.0834" stroke="#89BF19" stroke-width="1.375" stroke-linecap="round" stroke-linejoin="round"/>
<path d="M16.5 7.33341H19.6166C19.6888 7.33341 19.7604 7.31919 19.8271 7.29155C19.8938 7.26391 19.9545 7.2234 20.0055 7.17232C20.0566 7.12125 20.0971 7.06062 20.1248 6.99389C20.1524 6.92716 20.1666 6.85564 20.1666 6.78341V3.66675M2.64087 14.6667C4.0562 17.9044 7.28654 20.1667 11.0449 20.1667C15.7987 20.1667 19.7074 16.5487 20.1666 11.9167" stroke="#89BF19" stroke-width="1.375" stroke-linecap="round" stroke-linejoin="round"/>
<path d="M5.54582 14.6667H2.42915C2.28328 14.6667 2.14339 14.7247 2.04024 14.8278C1.9371 14.931 1.87915 15.0709 1.87915 15.2167V18.3334" stroke="#89BF19" stroke-width="1.375" stroke-linecap="round" stroke-linejoin="round"/>
<path d="M10.733 14.9113V16H11.3159V14.9001C11.9232 14.8552 12.4576 14.6981 12.9069 14.4512C13.6356 14.0247 14 13.3625 14 12.4422C14 11.7464 13.7328 11.1964 13.1984 10.8148C12.8705 10.5903 12.239 10.321 11.3038 10.018V7.93042C11.6924 7.96409 11.9718 8.10999 12.1175 8.36813C12.2025 8.51403 12.2633 8.74972 12.2997 9.0752H13.8543C13.83 8.19977 13.4899 7.56004 12.8219 7.17845C12.4576 6.93154 11.9475 6.78563 11.3038 6.74074V6H10.733V6.72952C10.3322 6.75196 10.0286 6.79686 9.82209 6.8642C9.46988 6.96521 9.16625 7.14478 8.88692 7.40292C8.65616 7.60494 8.49827 7.84063 8.37682 8.12121C8.25537 8.39057 8.19465 8.70483 8.19465 9.04153C8.19465 9.5578 8.35253 9.99551 8.65616 10.3659C8.97193 10.725 9.50632 11.0168 10.2593 11.2189L10.733 11.3535V13.688C10.2836 13.6207 9.97997 13.4635 9.83423 13.2166C9.72493 13.0595 9.65206 12.7452 9.60348 12.2851H8.00033C7.98818 13.2952 8.3161 14.0135 8.99622 14.44C9.38487 14.6756 9.95569 14.8215 10.733 14.9113ZM10.733 7.94164V9.87205C10.4415 9.79349 10.235 9.69248 10.1014 9.59147C9.84638 9.4119 9.72493 9.17621 9.72493 8.86195C9.72493 8.59259 9.80994 8.36813 9.96783 8.19978C10.1379 8.04265 10.3929 7.95286 10.733 7.94164ZM11.3038 13.6768V11.5331C11.6317 11.6453 11.8746 11.7576 12.0082 11.8586C12.239 12.0382 12.3604 12.2963 12.3604 12.5993C12.3604 13.0146 12.2268 13.3064 11.9839 13.4747C11.8382 13.5645 11.6196 13.6319 11.3038 13.6768Z" fill="#89BF19"/>
</svg>
