<svg width="100" height="100" viewBox="0 0 100 100" fill="none" xmlns="http://www.w3.org/2000/svg">
<path d="M90.7145 36.0148C90.0716 34.4567 90.804 32.6609 92.3584 32.0131C93.9046 31.3653 95.6869 32.1033 96.3298 33.6695C97.5342 36.5724 98.4619 39.5982 99.0804 42.7306C99.6908 45.7893 100.008 48.9545 100.008 52.1935C100.008 64.4608 95.4509 75.654 87.9476 84.1574C80.363 92.7511 69.7673 98.5896 57.8206 99.9918C56.1523 100.18 54.6468 98.975 54.4515 97.294C54.2643 95.613 55.4606 94.0959 57.1289 93.8991C67.5374 92.6773 76.7822 87.5851 83.4066 80.082C89.9495 72.6691 93.9209 62.9028 93.9209 52.1935C93.9209 49.3645 93.6442 46.6011 93.1152 43.9278C92.5619 41.1644 91.7562 38.524 90.7145 36.0148ZM69.4173 40.6396C69.401 40.738 69.3604 40.8364 69.3115 40.9266C69.2464 41.148 69.1976 41.4022 69.1813 41.6892C69.1813 41.7138 69.1813 41.7466 69.1813 41.7712L67.9199 60.3854C68.1152 60.984 68.3757 61.4432 68.7012 61.7384C69.0023 62.0172 69.3848 62.1648 69.8649 62.1812C69.8975 62.1812 69.9382 62.1812 69.9707 62.1812L75.2686 62.5502C75.2767 62.5502 75.293 62.5502 75.3092 62.5502C76.1312 62.6486 76.7415 62.4682 77.1729 62.0336C77.6611 61.5416 77.9785 60.7134 78.1494 59.59V59.5736L80.9001 42.8946C80.9001 42.87 80.9001 42.8372 80.9082 42.8126C81.0872 41.8696 80.9163 41.23 80.4769 40.8364C79.9642 40.3854 79.0934 40.1476 77.9378 40.0656C77.9134 40.0656 77.889 40.0656 77.8564 40.0656L71.8913 39.6556V39.6474C70.9798 39.5818 70.2962 39.7212 69.8649 40.0656C69.6696 40.2132 69.5313 40.4018 69.4173 40.6396ZM62.1826 60.8282C62.0606 60.697 61.9873 60.533 61.9548 60.3526L54.4922 44.3296C53.654 42.6732 52.8076 42.5748 51.945 43.0094C51.3346 43.321 50.6836 43.8458 50.0244 44.3706C49.6257 44.6904 49.235 45.0021 48.9014 45.2481L47.3551 46.3633L47.347 46.3715C46.224 47.1587 44.9951 47.5441 43.8477 47.5605C43.0908 47.5769 42.3747 47.4293 41.7318 47.1259C41.0726 46.8225 40.5029 46.3715 40.096 45.7729C39.6566 45.1333 39.388 44.3378 39.3717 43.4276C39.3717 43.4276 39.5752 42.8618 39.6159 42.8208L44.6452 37.5728C43.6686 37.4908 42.7897 37.5646 41.9596 37.7614C40.6901 38.0648 39.4857 38.6634 38.1673 39.4506C38.0127 39.5572 37.8255 39.6064 37.6302 39.5982L32.2754 39.2292L31.5837 49.4219L31.1605 55.941L34.2773 56.1542C34.5785 56.1706 34.8551 56.351 34.9854 56.638L38.3952 63.7064C38.8916 64.7397 39.3311 65.6253 39.917 66.2321C40.4622 66.8061 41.2109 67.1833 42.391 67.2981C42.8304 67.3391 43.2617 67.2981 43.6686 67.1587C43.9209 67.0767 44.1732 66.9537 44.4255 66.7897L42.2363 61.8942C42.041 61.4596 42.2363 60.9512 42.6676 60.7626C43.099 60.5658 43.6035 60.7626 43.7907 61.1972L46.167 66.5273C47.1436 67.1177 48.055 67.3391 48.8932 67.2243C49.6582 67.1095 50.3988 66.7077 51.1231 66.0107L47.6156 59.5244C47.3958 59.1144 47.5423 58.5896 47.9574 58.36C48.3643 58.1386 48.8851 58.2862 49.113 58.7044L52.8076 65.5351C53.5156 65.8877 54.2074 66.0025 54.8828 65.8631C55.5257 65.7319 56.193 65.3629 56.8685 64.7478L53.6051 57.376C53.4098 56.9414 53.6051 56.4248 54.0365 56.2362C54.4678 56.0394 54.9805 56.2362 55.1676 56.679L58.5531 64.305C59.0413 64.633 59.6191 64.7478 60.1807 64.6986C60.6771 64.6495 61.1654 64.469 61.5723 64.1902C61.9629 63.9196 62.2884 63.5506 62.4512 63.1242C62.6383 62.6568 62.6628 62.0992 62.4512 61.476L62.1826 60.8282ZM66.4551 61.353L64.1846 61.1972C64.4287 62.1238 64.3555 62.9766 64.0625 63.7228C63.7614 64.4854 63.2243 65.1169 62.5651 65.5761C61.9222 66.0189 61.1572 66.3059 60.3597 66.3797C59.5866 66.4535 58.7972 66.3305 58.0729 65.9697C57.1533 66.8143 56.2012 67.3227 55.2409 67.5277C54.2725 67.7245 53.3122 67.6015 52.36 67.1915C51.3672 68.1591 50.3011 68.7413 49.1536 68.9053C47.9899 69.0775 46.7855 68.8151 45.5322 68.1181C45.1091 68.4051 44.6696 68.6265 44.2139 68.7823C43.571 69.0037 42.9118 69.0775 42.2282 69.0037C40.5924 68.8397 39.5264 68.2821 38.7044 67.4293C37.915 66.6175 37.4186 65.6171 36.8571 64.4526L33.667 57.8352L30.8594 57.6384C30.6396 58.4502 30.306 58.6142 29.8503 59.139C28.8249 60.2952 27.9378 60.902 26.3591 60.8118C24.0641 60.6806 19.9951 60.984 18.6768 59.2292C18.0094 58.3354 17.6107 56.9414 17.5374 54.916C17.5374 54.8913 17.5374 54.8667 17.5293 54.8421L17.3421 38.9504C17.2038 37.2284 17.57 36.0394 18.3024 35.2686C19.043 34.4813 20.1091 34.1779 21.3786 34.2107C21.4193 34.2107 21.4518 34.2107 21.4844 34.2107L27.9622 34.6617V34.6699C29.1829 34.7355 30.2246 35.0226 30.9896 35.5966C31.6081 36.0558 32.0231 36.679 32.2103 37.499L37.4919 37.8598C38.8835 37.048 40.1693 36.433 41.569 36.0886C42.9443 35.7606 44.401 35.7114 46.11 36.0394L48.0387 34.0385C48.0713 33.9975 48.1038 33.9647 48.1527 33.9319C48.6898 33.4809 49.2839 33.1283 49.9105 32.8495C50.5697 32.5543 51.2695 32.3493 51.9938 32.2099C53.1413 31.9967 54.3376 31.9639 55.4932 32.0623C56.8034 32.1771 58.0648 32.4641 59.1471 32.8249C61.2142 33.5301 62.9476 34.9405 64.624 36.31C64.9984 36.6134 65.3727 36.925 65.8203 37.2612C65.8366 37.2694 65.8529 37.2858 65.8691 37.294L68.3106 39.1964C68.4489 39.0242 68.6117 38.8684 68.7907 38.729C69.5719 38.114 70.638 37.8598 71.9889 37.95V37.9418L77.9541 38.3518C77.9785 38.3518 78.0029 38.3518 78.0192 38.36C79.5492 38.4584 80.7699 38.8274 81.5837 39.5572C82.487 40.369 82.8613 41.5334 82.5602 43.1406C82.5602 43.157 82.5521 43.1652 82.5521 43.1816L79.8014 59.8442C79.5817 61.3366 79.1016 62.4846 78.3447 63.2472C77.5391 64.0672 76.473 64.4198 75.1139 64.264L69.8161 63.895H69.8079C68.8884 63.8786 68.1234 63.5752 67.5049 63.0012C67.0817 62.5912 66.7236 62.0336 66.4551 61.353ZM23.8607 51.8655C24.4954 51.9065 24.9756 52.4641 24.9349 53.1119C24.8942 53.7515 24.3408 54.2435 23.6979 54.1943C23.0632 54.1533 22.583 53.5957 22.6237 52.9561C22.6644 52.3165 23.2178 51.8163 23.8607 51.8655ZM74.0885 55.326C74.7233 55.367 75.2035 55.9246 75.1628 56.5642C75.1221 57.2038 74.5687 57.6958 73.9258 57.6466C73.291 57.6056 72.8027 57.048 72.8516 56.4084C72.8923 55.7688 73.4456 55.285 74.0885 55.326ZM30.0212 47.3145L30.6071 38.7536C30.6397 38.3026 30.3548 37.7368 29.9967 37.4662C29.5247 37.1136 28.7923 36.9332 27.8809 36.884L21.3786 36.4412C20.7845 36.4002 19.9707 36.515 19.5394 36.966C19.1406 37.3842 18.9535 38.1468 19.0511 39.3522C19.0511 39.3768 19.0511 39.4014 19.0511 39.426L19.2383 54.3091V54.3337C19.2952 55.982 19.5801 57.0562 20.0358 57.6712C20.4427 58.2206 27.3682 59.344 28.5645 57.9828C29.0365 57.4416 29.3132 56.5724 29.4189 55.4244H29.4108L29.9967 47.2981L30.0212 47.3145ZM87.0361 19.9016L67.3259 23.4604L71.4111 17.622C65.1855 10.9307 58.2601 8.52809 49.9837 11.0127C58.7565 0.0574011 70.4183 0.0410006 79.541 5.96146L83.6995 0L87.0361 19.9016ZM31.8766 74.9734L27.7913 80.8118C34.0169 87.5031 40.9424 89.9057 49.2188 87.4211C40.4378 98.3682 28.776 98.3846 19.6533 92.4641L15.4867 98.4256L12.1582 78.5322L31.8766 74.9734ZM10.1807 66.8635C10.9131 68.3887 10.2783 70.2173 8.76465 70.9471C7.25098 71.6851 5.4362 71.0455 4.71191 69.5203C3.18197 66.3223 1.99382 62.9274 1.19629 59.3686C0.415039 55.9 0 52.3247 0 48.6757C0 36.6626 4.37826 25.6663 11.6211 17.2284C18.9535 8.67569 29.2236 2.75523 40.8529 1.04961C42.513 0.811808 44.0511 1.97622 44.2871 3.64904C44.5231 5.32185 43.3675 6.87167 41.7074 7.10947C31.5674 8.59369 22.6074 13.7597 16.2028 21.2218C9.90397 28.5855 6.08724 38.1714 6.08724 48.6757C6.08724 51.9147 6.44531 55.0471 7.11263 58.032C7.8125 61.107 8.84603 64.0672 10.1807 66.8635Z" fill="#89BF19"/>
</svg>
