<svg width="84" height="85" viewBox="0 0 84 85" fill="none" xmlns="http://www.w3.org/2000/svg">
<path d="M24.2915 3.4165C24.2915 2.5877 23.9623 1.79285 23.3762 1.2068C22.7902 0.620744 21.9953 0.291504 21.1665 0.291504C20.3377 0.291504 19.5429 0.620744 18.9568 1.2068C18.3708 1.79285 18.0415 2.5877 18.0415 3.4165V9.99984C12.0415 10.479 8.10819 11.654 5.21652 14.5498C2.32069 17.4415 1.14569 21.379 0.662354 27.3748H83.3373C82.854 21.3748 81.679 17.4415 78.7832 14.5498C75.8915 11.654 71.954 10.479 65.9582 9.99567V3.4165C65.9582 2.5877 65.6289 1.79285 65.0429 1.2068C64.4568 0.620744 63.662 0.291504 62.8332 0.291504C62.0044 0.291504 61.2095 0.620744 60.6235 1.2068C60.0374 1.79285 59.7082 2.5877 59.7082 3.4165V9.72067C56.9373 9.6665 53.829 9.6665 50.3332 9.6665H33.6665C30.1707 9.6665 27.0624 9.6665 24.2915 9.72067V3.4165Z" fill="#89BF19"/>
<path fill-rule="evenodd" clip-rule="evenodd" d="M0.333252 43C0.333252 39.5042 0.333252 36.3958 0.387419 33.625H83.6124C83.6666 36.3958 83.6666 39.5042 83.6666 43V51.3333C83.6666 67.0458 83.6666 74.9042 78.7833 79.7833C73.9041 84.6667 66.0458 84.6667 50.3333 84.6667H33.6666C17.9541 84.6667 10.0958 84.6667 5.21659 79.7833C0.333251 74.9042 0.333252 67.0458 0.333252 51.3333V43ZM62.8333 51.3333C63.9383 51.3333 64.9981 50.8943 65.7795 50.1129C66.5609 49.3315 66.9999 48.2717 66.9999 47.1667C66.9999 46.0616 66.5609 45.0018 65.7795 44.2204C64.9981 43.439 63.9383 43 62.8333 43C61.7282 43 60.6684 43.439 59.887 44.2204C59.1056 45.0018 58.6666 46.0616 58.6666 47.1667C58.6666 48.2717 59.1056 49.3315 59.887 50.1129C60.6684 50.8943 61.7282 51.3333 62.8333 51.3333ZM62.8333 68C63.9383 68 64.9981 67.561 65.7795 66.7796C66.5609 65.9982 66.9999 64.9384 66.9999 63.8333C66.9999 62.7283 66.5609 61.6685 65.7795 60.8871C64.9981 60.1057 63.9383 59.6667 62.8333 59.6667C61.7282 59.6667 60.6684 60.1057 59.887 60.8871C59.1056 61.6685 58.6666 62.7283 58.6666 63.8333C58.6666 64.9384 59.1056 65.9982 59.887 66.7796C60.6684 67.561 61.7282 68 62.8333 68ZM46.1666 47.1667C46.1666 48.2717 45.7276 49.3315 44.9462 50.1129C44.1648 50.8943 43.105 51.3333 41.9999 51.3333C40.8949 51.3333 39.835 50.8943 39.0536 50.1129C38.2722 49.3315 37.8333 48.2717 37.8333 47.1667C37.8333 46.0616 38.2722 45.0018 39.0536 44.2204C39.835 43.439 40.8949 43 41.9999 43C43.105 43 44.1648 43.439 44.9462 44.2204C45.7276 45.0018 46.1666 46.0616 46.1666 47.1667ZM46.1666 63.8333C46.1666 64.9384 45.7276 65.9982 44.9462 66.7796C44.1648 67.561 43.105 68 41.9999 68C40.8949 68 39.835 67.561 39.0536 66.7796C38.2722 65.9982 37.8333 64.9384 37.8333 63.8333C37.8333 62.7283 38.2722 61.6685 39.0536 60.8871C39.835 60.1057 40.8949 59.6667 41.9999 59.6667C43.105 59.6667 44.1648 60.1057 44.9462 60.8871C45.7276 61.6685 46.1666 62.7283 46.1666 63.8333ZM21.1666 51.3333C22.2717 51.3333 23.3315 50.8943 24.1129 50.1129C24.8943 49.3315 25.3333 48.2717 25.3333 47.1667C25.3333 46.0616 24.8943 45.0018 24.1129 44.2204C23.3315 43.439 22.2717 43 21.1666 43C20.0615 43 19.0017 43.439 18.2203 44.2204C17.4389 45.0018 16.9999 46.0616 16.9999 47.1667C16.9999 48.2717 17.4389 49.3315 18.2203 50.1129C19.0017 50.8943 20.0615 51.3333 21.1666 51.3333ZM21.1666 68C22.2717 68 23.3315 67.561 24.1129 66.7796C24.8943 65.9982 25.3333 64.9384 25.3333 63.8333C25.3333 62.7283 24.8943 61.6685 24.1129 60.8871C23.3315 60.1057 22.2717 59.6667 21.1666 59.6667C20.0615 59.6667 19.0017 60.1057 18.2203 60.8871C17.4389 61.6685 16.9999 62.7283 16.9999 63.8333C16.9999 64.9384 17.4389 65.9982 18.2203 66.7796C19.0017 67.561 20.0615 68 21.1666 68Z" fill="#89BF19"/>
</svg>
