<svg width="84" height="84" viewBox="0 0 84 84" fill="none" xmlns="http://www.w3.org/2000/svg">
<path d="M8.66661 37.8335C9.72861 37.8347 10.7501 38.2413 11.5223 38.9704C12.2945 39.6994 12.7593 40.6958 12.8215 41.756C12.8837 42.8162 12.5388 43.8601 11.8572 44.6745C11.1755 45.4889 10.2087 46.0122 9.15411 46.1377L8.66661 46.1668H4.49994C3.43794 46.1657 2.41647 45.759 1.64424 45.03C0.872006 44.3009 0.407295 43.3045 0.345057 42.2444C0.282819 41.1842 0.627752 40.1403 1.30938 39.3259C1.991 38.5115 2.95788 37.9881 4.01244 37.8627L4.49994 37.8335H8.66661ZM41.9999 0.333496C43.0205 0.333631 44.0055 0.708314 44.7682 1.38648C45.5308 2.06464 46.018 2.99912 46.1374 4.01266L46.1666 4.50016V8.66683C46.1654 9.72883 45.7588 10.7503 45.0297 11.5225C44.3007 12.2948 43.3043 12.7595 42.2441 12.8217C41.184 12.884 40.14 12.539 39.3256 11.8574C38.5113 11.1758 37.9879 10.2089 37.8624 9.15433L37.8333 8.66683V4.50016C37.8333 3.39509 38.2723 2.33529 39.0537 1.55388C39.8351 0.772483 40.8949 0.333496 41.9999 0.333496ZM79.4999 37.8335C80.5619 37.8347 81.5834 38.2413 82.3556 38.9704C83.1279 39.6994 83.5926 40.6958 83.6548 41.756C83.7171 42.8162 83.3721 43.8601 82.6905 44.6745C82.0089 45.4889 81.042 46.0122 79.9874 46.1377L79.4999 46.1668H75.3333C74.2713 46.1657 73.2498 45.759 72.4776 45.03C71.7053 44.3009 71.2406 43.3045 71.1784 42.2444C71.1162 41.1842 71.4611 40.1403 72.1427 39.3259C72.8243 38.5115 73.7912 37.9881 74.8458 37.8627L75.3333 37.8335H79.4999ZM12.3874 12.3877C13.1049 11.6703 14.0595 11.2393 15.0721 11.1756C16.0847 11.112 17.0858 11.4199 17.8874 12.0418L18.2791 12.3877L21.1958 15.3043C21.9431 16.0542 22.3769 17.0603 22.4092 18.1184C22.4415 19.1766 22.0699 20.2073 21.3697 21.0013C20.6696 21.7953 19.6935 22.2931 18.6396 22.3935C17.5858 22.4939 16.5332 22.1894 15.6958 21.5418L15.3041 21.196L12.3874 18.2793C11.6063 17.498 11.1675 16.4383 11.1675 15.3335C11.1675 14.2286 11.6063 13.169 12.3874 12.3877ZM65.7208 12.3877C66.4706 11.6404 67.4768 11.2065 68.5349 11.1742C69.593 11.1419 70.6237 11.5136 71.4178 12.2137C72.2118 12.9138 72.7096 13.89 72.8099 14.9438C72.9103 15.9977 72.6058 17.0502 71.9583 17.8877L71.6124 18.2793L68.6958 21.196C67.946 21.9433 66.9398 22.3771 65.8817 22.4094C64.8236 22.4418 63.7928 22.0701 62.9988 21.37C62.2048 20.6698 61.707 19.6937 61.6066 18.6399C61.5062 17.586 61.8107 16.5335 62.4583 15.696L62.8041 15.3043L65.7208 12.3877ZM50.3333 67.0002C51.4383 67.0002 52.4982 67.4391 53.2796 68.2206C54.061 69.002 54.4999 70.0618 54.4999 71.1668C54.4999 74.482 53.183 77.6615 50.8388 80.0057C48.4946 82.3499 45.3152 83.6668 41.9999 83.6668C38.6847 83.6668 35.5053 82.3499 33.1611 80.0057C30.8169 77.6615 29.4999 74.482 29.4999 71.1668C29.5001 70.1463 29.8748 69.1613 30.5529 68.3986C31.2311 67.636 32.1656 67.1487 33.1791 67.0293L33.6666 67.0002H50.3333ZM41.9999 17.0002C47.247 17.0002 52.3611 18.6511 56.6177 21.7191C60.8743 24.7871 64.0578 29.1167 65.717 34.0945C67.3763 39.0723 67.4273 44.446 65.8628 49.4544C64.2983 54.4627 61.1976 58.8519 56.9999 62.0002C56.4257 62.4315 55.7496 62.7071 55.0374 62.8002L54.4999 62.8335H29.4999C28.5984 62.8335 27.7212 62.5411 26.9999 62.0002C22.8023 58.8519 19.7016 54.4627 18.1371 49.4544C16.5726 44.446 16.6236 39.0723 18.2829 34.0945C19.9421 29.1167 23.1255 24.7871 27.3822 21.7191C31.6388 18.6511 36.7529 17.0002 41.9999 17.0002Z" fill="#89BF19"/>
</svg>
