<svg width="20" height="20" viewBox="0 0 20 20" fill="none" xmlns="http://www.w3.org/2000/svg">
<path d="M9.20805 10.1073L8.66171 12.321C9.33638 12.4906 11.4154 13.1653 11.7234 11.9168C12.0442 10.6142 9.88179 10.2769 9.20805 10.1073ZM9.9533 7.08504L9.4583 9.09346C10.0193 9.23462 11.75 9.81212 12.0305 8.67637C12.322 7.49112 10.5143 7.22712 9.9533 7.08504ZM10 0.833374C8.18705 0.833374 6.41477 1.37099 4.90732 2.37824C3.39987 3.38548 2.22495 4.81712 1.53115 6.49211C0.837346 8.1671 0.655815 10.0102 1.00951 11.7884C1.36321 13.5665 2.23625 15.1999 3.51823 16.4819C4.80021 17.7638 6.43356 18.6369 8.21172 18.9906C9.98988 19.3443 11.833 19.1627 13.508 18.4689C15.183 17.7751 16.6146 16.6002 17.6218 15.0928C18.6291 13.5853 19.1667 11.813 19.1667 10C19.1667 8.79626 18.9296 7.60426 18.4689 6.49211C18.0083 5.37996 17.3331 4.36943 16.4819 3.51823C15.6307 2.66702 14.6201 1.99181 13.508 1.53115C12.3958 1.07048 11.2038 0.833374 10 0.833374ZM13.9949 8.69379C13.9756 9.04545 13.8407 9.38089 13.6111 9.64795C13.3815 9.91501 13.0701 10.0987 12.7253 10.1705C12.952 10.2628 13.157 10.401 13.3276 10.5765C13.4982 10.7519 13.6306 10.9608 13.7165 11.19C13.8024 11.4192 13.8398 11.6636 13.8265 11.908C13.8132 12.1523 13.7494 12.3913 13.6392 12.6098C13.102 14.1608 11.827 14.2919 10.1311 13.9674L9.71955 15.6357L8.72496 15.3845L9.13105 13.7391C8.86618 13.6731 8.60216 13.6037 8.33905 13.531L7.93113 15.1847L6.93746 14.9345L7.34996 13.2625C7.11713 13.2029 6.88154 13.1387 6.64046 13.0782L5.34613 12.7519L5.84021 11.6005C5.84021 11.6005 6.57354 11.7976 6.56254 11.783C6.60815 11.7977 6.65624 11.8032 6.704 11.7992C6.75176 11.7951 6.79824 11.7816 6.84073 11.7594C6.88322 11.7373 6.92087 11.7068 6.95148 11.67C6.9821 11.6331 7.00506 11.5905 7.01904 11.5446L8.13463 7.01721C8.14893 6.87862 8.10854 6.73992 8.02207 6.63068C7.9356 6.52144 7.80988 6.45028 7.67171 6.43237C7.68638 6.42229 6.94846 6.25087 6.94846 6.25087L7.2143 5.17654L8.58471 5.52304L8.5838 5.52854C8.79005 5.57987 9.00271 5.62937 9.21904 5.67887L9.62605 4.02704L10.6206 4.27821L10.221 5.89704C10.4877 5.95937 10.7563 6.02079 11.0185 6.08679L11.4145 4.47804L12.409 4.72921L12.0011 6.38104C13.257 6.81829 14.1755 7.47462 13.9949 8.69379Z" fill="#89BF19"/>
</svg>
