<svg width="165" height="49" viewBox="0 0 165 49" fill="none" xmlns="http://www.w3.org/2000/svg">
<g clip-path="url(#clip0_1_657)">
<path d="M83.4819 19.5047C82.0156 17.7514 81.3003 15.4922 81.491 13.2163C81.3207 10.9677 82.0349 8.74141 83.4819 7.00967C84.3104 6.27268 85.2804 5.71162 86.333 5.36063C87.3856 5.00964 88.4987 4.87606 89.6046 4.968H94.6091V7.81272H90.3273C89.2812 7.7832 88.2406 7.97332 87.2728 8.37078C86.5317 8.71141 85.9472 9.3192 85.6364 10.0722C85.255 11.0846 85.0788 12.1626 85.1182 13.2436C85.0791 14.3233 85.2505 15.4004 85.6228 16.4149C85.9436 17.1594 86.5323 17.7567 87.2728 18.0891C88.2546 18.4854 89.3102 18.6664 90.3682 18.6199H94.7591V21.5327H89.6319C88.5229 21.6239 87.4068 21.4914 86.3503 21.1429C85.2937 20.7945 84.3182 20.2374 83.4819 19.5047Z" fill="white"/>
<path d="M100.773 14.5774V21.5327H97.3773V4.8999H100.773V11.7055H108.491V4.8999H111.914V21.5327H108.505V14.5774H100.773Z" fill="white"/>
<path d="M117.027 19.6272C115.497 17.8551 114.732 15.55 114.9 13.2164C114.814 12.0606 114.957 10.8992 115.322 9.79899C115.688 8.69878 116.267 7.68147 117.027 6.80556C117.863 6.03479 118.849 5.44375 119.923 5.06912C120.998 4.69449 122.138 4.54427 123.273 4.62778C124.412 4.54695 125.555 4.69835 126.634 5.07275C127.712 5.44715 128.703 6.03672 129.545 6.80556C131.076 8.57768 131.841 10.8827 131.673 13.2164C131.843 15.5544 131.078 17.8645 129.545 19.6408C127.77 21.0555 125.565 21.826 123.293 21.826C121.021 21.826 118.817 21.0555 117.041 19.6408L117.027 19.6272ZM126.818 17.5039C127.727 16.2671 128.158 14.7448 128.032 13.2164C128.152 11.6843 127.722 10.1594 126.818 8.91528C125.833 8.03335 124.556 7.54562 123.232 7.54562C121.908 7.54562 120.631 8.03335 119.645 8.91528C118.737 10.152 118.306 11.6744 118.432 13.2028C118.301 14.7338 118.727 16.2606 119.632 17.5039C120.617 18.3858 121.895 18.8736 123.218 18.8736C124.542 18.8736 125.819 18.3858 126.805 17.5039H126.818Z" fill="white"/>
<path d="M135.914 19.6272C134.383 17.855 133.618 15.55 133.786 13.2163C133.615 10.8846 134.374 8.57973 135.9 6.8055C137.678 5.39547 139.882 4.62793 142.152 4.62793C144.423 4.62793 146.627 5.39547 148.405 6.8055C149.167 7.68034 149.749 8.69717 150.117 9.79743C150.484 10.8977 150.63 12.0596 150.545 13.2163C150.716 15.5544 149.951 17.8645 148.418 19.6408C146.642 21.0554 144.438 21.8259 142.166 21.8259C139.894 21.8259 137.689 21.0554 135.914 19.6408V19.6272ZM145.745 17.5038C146.654 16.2671 147.085 14.7447 146.959 13.2163C147.087 11.6835 146.656 10.1562 145.745 8.91522C144.762 8.03426 143.487 7.54699 142.166 7.54699C140.845 7.54699 139.57 8.03426 138.586 8.91522C137.672 10.1492 137.241 11.6737 137.373 13.2027C137.242 14.7337 137.668 16.2605 138.573 17.5038C139.558 18.3858 140.835 18.8735 142.159 18.8735C143.483 18.8735 144.76 18.3858 145.745 17.5038Z" fill="white"/>
<path d="M155.045 19.9402C154.476 19.2913 154.042 18.5359 153.769 17.7181C153.495 16.9003 153.386 16.0363 153.45 15.1763V4.8999H156.818V14.7271C156.787 15.5106 156.913 16.2925 157.186 17.0274C157.429 17.5718 157.867 18.0033 158.414 18.2388C159.151 18.5251 159.941 18.6549 160.732 18.6199H165V21.5327H159.805C158.945 21.5943 158.082 21.4854 157.265 21.212C156.448 20.9387 155.694 20.5064 155.045 19.9402Z" fill="white"/>
<path d="M82.7864 29.4817V26.5825H97.0227V29.4817H91.5682V43.2153H88.1591V29.4817H82.7864Z" fill="white"/>
<path d="M102.518 37.0221V43.2152H99.1091V26.5824H107.727C109.208 26.4577 110.679 26.9225 111.818 27.8755C112.305 28.396 112.678 29.0124 112.913 29.685C113.148 30.3577 113.239 31.0719 113.182 31.7819C113.182 34.5041 112.032 36.1782 109.732 36.8044L114.055 43.2152H109.964L105.955 37.0221H102.518ZM108.968 33.5649C109.188 33.3315 109.356 33.0545 109.462 32.7521C109.568 32.4496 109.609 32.1283 109.582 31.8091C109.611 31.4876 109.572 31.1635 109.466 30.8584C109.36 30.5533 109.191 30.2742 108.968 30.0396C108.439 29.6334 107.779 29.4348 107.114 29.4816H102.518V34.123H107.114C107.779 34.1697 108.439 33.9712 108.968 33.5649Z" fill="white"/>
<path d="M119.468 39.5947L118.186 43.2153H114.545L120.968 26.5825H124.991L131.4 43.2153H127.582L126.218 39.5947H119.468ZM125.318 36.75L122.891 29.7811L120.423 36.75H125.318Z" fill="white"/>
<path d="M140.291 26.5824C141.397 26.4849 142.512 26.6133 143.567 26.9596C144.622 27.3059 145.595 27.863 146.427 28.5969C147.891 30.3564 148.601 32.6204 148.405 34.8988C148.599 37.1728 147.889 39.4318 146.427 41.1871C145.596 41.9235 144.623 42.483 143.568 42.8317C142.513 43.1804 141.398 43.3109 140.291 43.2152H133.173V26.5824H140.291ZM142.677 39.7716C143.424 39.4391 144.011 38.8286 144.314 38.0702C144.693 37.0574 144.864 35.979 144.818 34.8988C144.864 33.8142 144.692 32.7315 144.314 31.7138C144.011 30.9554 143.424 30.3449 142.677 30.0124C141.7 29.616 140.649 29.435 139.595 29.4816H136.582V40.3705H139.595C140.654 40.3956 141.705 40.1913 142.677 39.7716Z" fill="white"/>
<path d="M152.509 41.1735C151.055 39.4196 150.345 37.1678 150.532 34.8988C150.343 32.6255 151.053 30.3686 152.509 28.6105C153.346 27.8741 154.323 27.3147 155.383 26.9661C156.442 26.6175 157.561 26.487 158.673 26.5824H163.514V29.4816H159.341C158.416 29.4562 157.493 29.5897 156.614 29.8763C155.955 30.1009 155.386 30.5297 154.991 31.1013C154.573 31.7982 154.317 32.5795 154.241 33.388H163.309V36.3008H154.241C154.302 37.1107 154.545 37.8967 154.95 38.601C155.344 39.1999 155.924 39.6545 156.6 39.8941C157.478 40.1897 158.401 40.3279 159.327 40.3024H163.745V43.2152H158.659C157.549 43.3069 156.432 43.1733 155.375 42.8224C154.318 42.4715 153.343 41.9106 152.509 41.1735Z" fill="white"/>
<path d="M73.6364 18.6335C74.1902 18.6769 74.7389 18.5009 75.1637 18.1435C75.3455 17.9387 75.484 17.6993 75.5707 17.4396C75.6574 17.18 75.6906 16.9055 75.6682 16.6327C75.7084 16.1057 75.5422 15.5836 75.2046 15.1763C74.994 14.984 74.7463 14.8365 74.4767 14.7428C74.207 14.6492 73.9211 14.6115 73.6364 14.6319H70.7728C67.5 14.6319 65.8637 12.9945 65.8637 9.71827C65.8134 9.06238 65.8949 8.40306 66.1033 7.77901C66.3117 7.15495 66.6428 6.57872 67.0773 6.0841C67.5838 5.65122 68.171 5.32255 68.8052 5.11699C69.4394 4.91143 70.1081 4.83304 70.7728 4.88633H78.5864L75.7364 7.7991H71.4955C71.2327 7.76632 70.966 7.79362 70.7154 7.87895C70.4648 7.96427 70.2369 8.10539 70.049 8.29161C69.8612 8.47784 69.7182 8.70428 69.6309 8.95381C69.5437 9.20334 69.5145 9.46941 69.5455 9.73188C69.5059 10.2682 69.6818 10.7963 70.0364 11.2019C70.4414 11.5558 70.9718 11.7327 71.5091 11.6919H74.3455C75.708 11.5988 77.0518 12.0491 78.0818 12.9441C78.5312 13.4393 78.8752 14.0202 79.0932 14.6519C79.3112 15.2836 79.3985 15.9528 79.35 16.6191C79.3996 17.2876 79.3128 17.9592 79.0948 18.5932C78.8768 19.2272 78.5322 19.8105 78.0818 20.3077C77.0573 21.1922 75.7243 21.6374 74.3728 21.5463H66.3V18.6335H73.6364Z" fill="white"/>
<path d="M70.091 40.3024H80.6046V43.2152H66.5319V38.3152C66.4796 37.6476 66.5639 36.9763 66.7796 36.3423C66.9952 35.7082 67.3378 35.1245 67.7864 34.6266C68.286 34.1849 68.8692 33.8477 69.5016 33.635C70.134 33.4222 70.8027 33.3382 71.4682 33.388H74.1955V33.9324L78.5046 31.5096L74.1546 29.0052V29.5768H67.2L70.091 26.6096H76.091C77.4231 26.5182 78.7387 26.9478 79.7591 27.8074C80.2045 28.2936 80.5455 28.8657 80.7613 29.4883C80.977 30.1109 81.0629 30.771 81.0137 31.428C81.0634 32.086 80.9791 32.7472 80.7658 33.3718C80.5525 33.9964 80.2147 34.5714 79.7728 35.0621C78.7588 35.9344 77.4397 36.37 76.1046 36.2735H72.15C71.8714 36.2492 71.5906 36.2799 71.3239 36.364C71.0571 36.4481 70.8096 36.5838 70.5955 36.7635C70.4091 36.9736 70.268 37.2199 70.1812 37.4869C70.0944 37.7538 70.0637 38.0358 70.091 38.3152V40.3024Z" fill="#89BF19"/>
<path d="M49.0091 9.90881L40.5273 15.1763L42.3818 16.1427L23.2909 48.9999H29.6454L47.2363 18.756L49.3363 19.8858L49.0091 9.90881Z" fill="#89BF19"/>
<path d="M46.6227 29.2638L58.0499 48.9999H35.1818L46.6227 29.2638Z" fill="#00B6FB"/>
<path d="M34.9636 8.99691L29.0863 -1.15698L8.69995 33.9597H15.0818L29.0863 9.82718L31.8136 14.455L27.2727 22.3086H33.6545L38.1818 14.455L34.9636 8.99691Z" fill="#00B6FB"/>
<path d="M12.4227 38.6011L6.38182 49H0L6.06818 38.6011H12.4227Z" fill="#89BF19"/>
<path d="M30.9954 26.7186L18.0545 49H11.7L24.6409 26.7186H30.9954Z" fill="#89BF19"/>
</g>
<defs>
<clipPath id="clip0_1_657">
<rect width="165" height="49" fill="white"/>
</clipPath>
</defs>
</svg>
