<svg width="76" height="88" viewBox="0 0 76 88" fill="none" xmlns="http://www.w3.org/2000/svg">
<path d="M75.5 19.0835C75.5 27.1252 68.9583 33.6669 60.9167 33.6669C52.875 33.6669 46.3333 27.1252 46.3333 19.0835C46.3333 11.0419 52.875 4.50018 60.9167 4.50018C68.9583 4.50018 75.5 11.0419 75.5 19.0835ZM67.1667 41.1252C65.0833 41.6669 63 42.0002 60.9167 42.0002C54.8422 41.9892 49.0196 39.5712 44.7243 35.2759C40.429 30.9806 38.011 25.158 38 19.0835C38 12.9585 40.4167 7.41685 44.25 3.29185C43.4938 2.36494 42.5404 1.61839 41.4592 1.10662C40.378 0.594842 39.1962 0.330727 38 0.333518C33.4167 0.333518 29.6667 4.08352 29.6667 8.66685V9.87518C17.2917 13.5419 8.83333 24.9169 8.83333 37.8335V62.8335L0.5 71.1668V75.3335H75.5V71.1668L67.1667 62.8335V41.1252ZM38 87.8335C42.625 87.8335 46.3333 84.1252 46.3333 79.5002H29.6667C29.6667 81.7103 30.5446 83.8299 32.1074 85.3927C33.6702 86.9555 35.7899 87.8335 38 87.8335Z" fill="#89BF19"/>
</svg>
