<svg width="124" height="168" viewBox="0 0 124 168" fill="none" xmlns="http://www.w3.org/2000/svg">
<path d="M103.803 0.968224C103.38 1.13142 102.956 1.55472 102.86 1.94572C102.696 2.46592 102.501 2.56453 101.688 2.36903C101.037 2.23813 100.809 2.27213 100.94 2.53222C101.069 2.72772 100.94 2.98783 100.68 3.08643C100.16 3.28193 100.289 3.86843 100.843 3.86843C101.039 3.86843 101.071 3.73923 100.974 3.54203C100.876 3.37883 100.974 3.31423 101.234 3.41113C101.527 3.50803 101.658 3.83443 101.561 4.19313C101.398 4.77963 101.333 4.77963 100.714 4.35633C99.672 3.64063 99.0855 3.73753 99.3473 4.55183C99.4782 4.94283 99.4442 5.20293 99.315 5.10433C99.1518 5.03973 98.6299 4.77793 98.176 4.55183C97.4603 4.19313 97.1662 4.22543 96.2873 4.64872C95.7348 4.94112 95.2775 5.39673 95.2775 5.65853C95.2775 5.92033 94.9851 6.14643 94.6264 6.14643C93.8767 6.14643 92.3467 7.02533 92.3467 7.44863C92.3467 7.61183 92.5745 7.77503 92.8346 7.83963C93.2902 7.93653 93.2902 8.00283 92.8346 8.65393C92.5422 9.07722 91.988 9.40192 91.597 9.40192C90.815 9.40192 88.5693 10.1176 88.2106 10.4763C87.8196 10.8673 89.3496 12.0063 90.2625 12.0063C91.206 12.0063 91.0768 12.4619 90.1316 12.4942C87.9182 12.6574 87.9182 12.6574 88.503 13.113C88.9263 13.4394 88.9909 13.6009 88.6985 13.895C88.2106 14.3829 88.146 14.3506 90.6841 14.4492C92.7666 14.5461 94.2983 15.068 94.2983 15.7191C94.2983 15.9146 94.657 16.4671 95.0803 16.9567C95.5359 17.4123 95.8283 17.8679 95.7314 17.9665C95.6651 18.0311 95.8606 18.7808 96.2193 19.5951C96.8058 20.9296 96.8058 21.1574 96.4148 21.5807C96.0561 21.9394 96.0238 22.1009 96.3502 22.1995C96.6426 22.3304 96.6426 22.395 96.3502 22.395C95.83 22.4273 95.7977 23.0784 96.3179 23.0784C96.5134 23.0784 96.9367 22.8506 97.2308 22.5905C97.7187 22.1349 97.8496 22.1672 98.5976 22.7537C99.4442 23.4048 100.031 24.707 99.4442 24.707C99.281 24.707 98.8594 24.5438 98.5007 24.3483C98.142 24.1851 97.5232 24.0559 97.1339 24.1205C96.5151 24.2174 96.6137 24.3483 97.7204 24.8362C98.4361 25.1286 99.2504 25.3241 99.5768 25.2595C100 25.1286 100.097 25.2918 100 25.9752C99.9338 26.4308 99.8692 26.8864 99.8369 26.985C99.7706 27.0819 99.7706 27.2451 99.8046 27.376C99.8046 27.5069 99.349 27.767 98.7625 27.9625C97.8836 28.2226 97.8513 28.2549 98.5993 28.158C99.1195 28.0934 99.5428 28.2226 99.6414 28.4844C99.8692 29.0369 99.4459 29.2987 98.8917 28.9723C98.3392 28.6136 97.1662 28.94 97.3294 29.3956C97.394 29.5911 97.9482 29.8512 98.567 29.9498L99.6737 30.1453L98.3715 30.2099C97.4603 30.2422 97.2002 30.3408 97.5249 30.5363C98.1114 30.9273 98.2729 31.8062 97.8173 32.0986C97.5895 32.1955 97.5572 32.1309 97.6881 31.9354C97.8173 31.7076 97.7527 31.5444 97.5895 31.5444C96.9384 31.5444 97.2308 32.2278 98.176 33.0421C98.8594 33.6286 99.0872 34.0196 98.9563 34.5721L98.7608 35.2878L99.4119 34.5398L100.095 33.8241L100.845 34.4752C101.595 35.1586 101.595 35.1586 100.91 34.8016C100.454 34.6061 100.162 34.5738 100.162 34.7693C100.162 34.9325 100.357 35.1603 100.585 35.2572C100.78 35.3541 100.651 35.3541 100.259 35.2572C99.672 35.1263 99.5105 35.2249 99.5105 35.7451C99.5105 36.1021 99.8029 36.4608 100.162 36.5917C100.52 36.7226 100.746 36.9504 100.65 37.1136C100.519 37.2768 100.617 37.406 100.813 37.406C101.041 37.406 101.139 37.6338 101.008 37.8939C100.91 38.2203 101.041 38.3818 101.464 38.3818C101.79 38.3818 102.18 38.6742 102.278 39.0329C102.375 39.3916 102.637 39.684 102.831 39.684C103.026 39.684 103.449 39.9118 103.774 40.2059C104.294 40.6938 104.458 40.6938 105.403 40.2059C106.509 39.6517 107.161 39.7826 106.868 40.5646C106.77 40.8247 106.804 40.9233 106.967 40.8247C107.162 40.7278 107.39 40.857 107.552 41.1171C107.715 41.4095 108.17 41.5081 108.92 41.3772C109.668 41.2803 109.864 41.1494 109.571 40.9539C109.279 40.7584 109.245 40.6615 109.507 40.6615C109.702 40.6615 109.833 40.3028 109.767 39.8472C109.734 39.3916 109.799 39.0329 109.93 39.0329C110.418 39.0329 110.516 37.7307 110.027 37.4706C109.603 37.2105 109.603 37.1119 110.059 36.6886C110.319 36.3962 110.482 36.1021 110.385 36.0375C110.321 35.9406 110.45 35.6788 110.744 35.451C111.329 34.9631 111.395 34.1488 110.841 34.1488C110.581 34.1488 110.678 33.921 111.037 33.6609C111.589 33.2376 111.589 33.173 111.133 32.9775C110.385 32.7174 110.45 32.1955 111.2 32.1955C111.591 32.1955 111.785 31.9677 111.752 31.6413C111.752 31.2826 111.948 31.0548 112.371 31.0548C112.794 31.0548 113.022 30.827 113.022 30.436C113.022 30.0773 113.218 29.7526 113.445 29.6863C113.706 29.5894 113.772 29.7186 113.641 30.045C113.445 30.5329 113.542 30.5329 114.292 30.2082C114.748 29.9804 115.139 29.6217 115.139 29.3616C115.139 29.1338 115.334 28.9383 115.594 28.9383C116.213 28.9383 116.409 28.5796 116.572 27.3437C116.636 26.7895 116.832 26.1384 117.06 25.9106C117.255 25.6505 117.32 25.3564 117.189 25.2595C117.092 25.1286 117.287 25.0317 117.677 25.0317C118.816 25.0317 121.877 22.8183 122.138 21.8408C122.268 21.3529 122.365 20.8973 122.365 20.7987C122.333 20.7018 122.561 20.5063 122.821 20.3754C123.081 20.2445 123.277 19.9844 123.277 19.8552C123.277 19.4319 120.574 20.083 120.184 20.6032C120.021 20.831 119.598 21.0911 119.273 21.222C118.753 21.4175 118.753 21.3852 119.241 20.6355C119.533 20.1799 119.892 19.8212 120.055 19.8212C120.218 19.8212 120.347 19.658 120.347 19.4625C120.347 19.267 120.12 19.2024 119.827 19.2993C119.469 19.4285 119.339 19.3639 119.469 19.0392C119.599 18.7468 119.436 18.485 119.11 18.4204C118.751 18.3235 118.882 18.2572 119.402 18.2249C119.858 18.2249 120.509 18.4204 120.868 18.6805C121.583 19.2347 122.625 19.3316 122.625 18.8114C122.625 18.6482 122.789 18.5836 122.952 18.6805C123.538 19.0392 123.278 18.3218 122.625 17.703C122.267 17.3766 121.974 17.2151 121.974 17.3766C121.974 17.5075 121.779 17.4735 121.583 17.312C120.966 16.8241 119.045 16.5317 119.045 16.8887C119.045 17.0842 118.882 17.2151 118.719 17.2151C118.523 17.2151 118.426 17.1182 118.426 16.955C118.525 16.3362 118.362 16.207 117.906 16.564C117.483 16.9227 117.451 16.8904 117.614 16.4348C117.842 15.816 117.614 15.7837 116.67 16.3039C116.15 16.564 116.247 16.4008 116.963 15.6528C117.614 15.034 118.2 14.7093 118.591 14.8062C118.95 14.8708 119.503 14.7076 119.829 14.4475C120.448 13.9596 120.448 13.9596 119.861 13.504C119.341 13.1453 119.307 12.9498 119.633 12.5588C119.96 12.1678 119.926 12.0709 119.373 11.9077C119.015 11.8108 118.787 11.8754 118.885 12.0386C118.982 12.1678 118.593 12.1355 118.007 11.9077L116.932 11.549L117.91 11.3535L118.887 11.158L118.008 10.6038C117.553 10.2774 116.966 10.0496 116.706 10.0836C115.632 10.2145 115.436 10.0513 115.795 9.40022C115.99 9.04152 116.381 8.74913 116.641 8.74913C116.902 8.74913 117.032 8.61992 116.934 8.42273C116.835 8.25953 116.315 8.19493 115.763 8.32583C114.916 8.48903 114.851 8.42273 115.045 7.90253C115.241 7.34833 115.208 7.34833 114.753 7.70703C114.297 8.06573 114.166 8.03343 113.809 7.38063C113.581 6.95733 113.418 6.50173 113.451 6.33853C113.517 6.20763 113.386 5.88293 113.158 5.62283C112.963 5.36273 112.866 4.93943 112.995 4.67933C113.223 4.09283 112.832 4.02822 112.278 4.58242C111.985 4.87482 111.887 4.87482 111.887 4.58242C111.887 4.38692 112.147 4.06223 112.473 3.89903C112.995 3.57263 112.995 3.57263 112.441 3.54033C112.05 3.54033 111.921 3.40943 112.114 3.11703C112.245 2.92153 112.374 2.40133 112.374 1.97803C112.407 1.45783 112.211 1.26233 111.691 1.26233C110.941 1.26233 109.933 2.49992 109.933 3.44342C109.901 3.86673 109.77 3.80213 109.413 3.11703C109.153 2.62913 108.794 2.23813 108.599 2.23813C108.403 2.23813 108.339 2.36903 108.436 2.53053C108.532 2.65973 108.403 3.08472 108.109 3.40942C107.621 3.99593 107.621 3.99593 107.817 3.31083C107.98 2.72433 107.881 2.65973 107.361 2.79063C107.002 2.88753 106.515 3.14933 106.319 3.40942C106.124 3.66953 105.797 3.86503 105.634 3.86503C105.017 3.86503 106.122 2.85523 107.229 2.39963C108.986 1.65163 108.434 1.03283 106.251 1.19433C105.925 1.22663 105.731 1.12973 105.828 0.96653C106.049 0.609531 104.779 0.609524 103.803 0.968224ZM105.365 1.42383C105.365 1.48843 105.039 1.71622 104.648 1.91172C103.932 2.27042 103.932 2.23813 104.519 1.78083C105.202 1.22833 105.365 1.16373 105.365 1.42383ZM102.338 3.08472C102.241 3.18163 101.947 3.21563 101.719 3.11703C101.459 3.02013 101.556 2.92153 101.914 2.92153C102.273 2.88923 102.467 2.98612 102.338 3.08472ZM118.942 13.1436C118.942 13.4037 118.811 13.6315 118.649 13.6315C118.52 13.6315 118.389 13.4037 118.389 13.1436C118.389 12.8835 118.52 12.6557 118.649 12.6557C118.811 12.6557 118.942 12.8835 118.942 13.1436ZM118.226 18.5156C118.323 18.6788 118.258 18.842 118.095 18.842C117.899 18.842 117.736 18.6788 117.736 18.5156C117.736 18.3201 117.801 18.1892 117.867 18.1892C117.964 18.1909 118.127 18.3201 118.226 18.5156ZM118.811 20.1442C118.714 20.5029 118.518 20.7953 118.355 20.7953C118.029 20.7953 117.964 20.0133 118.29 19.7209C118.714 19.2976 118.974 19.4931 118.811 20.1442ZM98.3647 29.2596C98.2661 29.4228 97.9737 29.586 97.7782 29.586C97.5504 29.586 97.5827 29.4551 97.8768 29.2596C98.4956 28.8686 98.6248 28.8686 98.3647 29.2596ZM100.384 30.7573C100.287 30.8542 99.9933 30.8882 99.7655 30.7896C99.5054 30.6927 99.6023 30.5941 99.961 30.5941C100.32 30.5618 100.514 30.6604 100.384 30.7573Z" fill="#89BF19"/>
<path d="M80.5572 4.87486C81.2423 5.62286 80.9805 5.78607 79.9401 5.26586C78.9626 4.77796 77.368 4.87486 76.4245 5.46136C76.0335 5.72147 76.0658 5.88466 76.7509 6.47116L77.5329 7.15457L76.5554 6.92676C74.1788 6.37256 72.6165 6.24336 72.03 6.53576C71.7036 6.73126 70.6955 6.92677 69.8489 6.95907C68.97 7.02367 68.0911 7.18686 67.9279 7.28546C67.3737 7.64416 67.5692 8.03346 68.4481 8.23066C69.0006 8.39386 69.2301 8.62167 69.0992 8.91407C68.8714 9.53287 68.9037 9.53286 70.1413 8.88176C71.4435 8.23066 73.0058 8.39386 72.8766 9.14186C72.812 9.56516 73.0721 9.66207 74.342 9.69607C75.2209 9.69607 76.2953 9.53286 76.7832 9.33737C77.7267 8.97867 79.4539 9.24047 79.1921 9.69607C79.0935 9.85927 78.3778 10.0548 77.6298 10.184C75.8074 10.4764 75.2209 10.9643 75.9689 11.5508C76.4568 11.9095 76.4568 11.9741 76.0675 11.9741C75.8074 11.9741 75.2855 11.7786 74.9608 11.5185C74.6038 11.2584 73.7232 11.0306 73.0075 11.0306H71.7053L72.812 11.9741C73.4308 12.5283 74.342 13.1131 74.8299 13.3409C76.0012 13.8288 75.6765 14.3507 74.4389 13.9274C73.1367 13.4395 71.7036 13.6673 71.5744 14.3507C71.4775 14.774 71.673 14.9372 72.2901 14.9372C72.9089 14.9372 73.1367 15.1004 73.1367 15.5883C73.1367 16.0116 73.3645 16.2394 73.7878 16.2394C74.1465 16.2394 74.4389 16.3703 74.4389 16.5658C74.4389 17.0877 72.9412 16.9568 72.4856 16.4026C72.2578 16.1425 71.7359 15.9147 71.2803 15.9147C70.6292 15.9147 70.5323 16.0456 70.6955 16.5658C70.8247 16.9891 70.7601 17.2169 70.4677 17.2169C69.752 17.2169 69.1332 17.7711 69.3933 18.1604C69.5565 18.4528 69.7197 18.4528 70.0444 18.1927C70.3368 17.9326 70.5323 17.9326 70.6955 18.1927C71.0219 18.7469 73.1367 18.616 73.1367 18.0295C73.1367 17.6062 73.2659 17.6062 74.0156 18.0941C74.5698 18.4851 74.9268 18.5497 74.9931 18.2896C75.1563 17.8663 76.3939 18.1264 76.3939 18.5837C76.3939 19.007 78.3795 18.5837 78.966 18.0295C79.4216 17.6062 78.966 17.443 76.4262 17.1183C75.3841 16.9874 76.2307 16.4026 77.5006 16.4026C78.575 16.4026 78.8028 16.3057 78.7382 15.8484C78.6736 15.3605 78.8028 15.2959 79.6817 15.4897C80.4637 15.6529 80.6592 15.5866 80.4637 15.2942C80.3328 15.0341 80.496 14.7077 80.9193 14.4153C81.9291 13.6996 81.7982 12.9822 80.6269 12.9822C80.1067 12.9822 79.6494 12.819 79.6494 12.6558C79.6494 12.2971 79.8772 12.2648 81.7659 12.2971C82.4816 12.2971 82.8726 12.2325 82.6771 12.1339C81.7659 11.7429 82.2861 11.2873 83.3945 11.4828C84.8599 11.7752 85.8357 11.4828 85.8357 10.7671C85.868 10.4084 86.6177 9.85587 87.9522 9.23707C90.1656 8.19497 90.7198 7.57617 89.0912 7.93486C88.3415 8.09807 88.1137 8.03176 88.1137 7.64246C88.1137 7.05596 89.0912 6.73126 90.4903 6.82816C91.8265 6.92506 93.0624 6.53576 92.8992 6.04616C92.736 5.55826 91.5324 5.23187 89.6114 5.19957C88.7325 5.16727 87.4626 5.00406 86.7469 4.77626C85.7048 4.48386 85.4124 4.48387 85.1846 4.80857C85.0214 5.10097 84.8582 5.13496 84.729 4.87316C84.4366 4.41756 83.2313 4.41756 83.2313 4.87316C83.2313 5.06866 82.9712 5.13326 82.6771 5.03636C82.3507 4.93777 81.6673 4.77627 81.1148 4.64536C80.2971 4.48386 80.1985 4.51616 80.5572 4.87486Z" fill="#89BF19"/>
<path d="M65.6465 8.74936C65.6465 8.91256 65.3201 9.07577 64.9631 9.07577C64.3766 9.07577 64.3443 9.17266 64.6707 9.56366C64.9971 9.95466 64.9631 10.0839 64.5398 10.2471C64.2134 10.378 64.0519 10.6704 64.1488 10.8982C64.278 11.1906 64.0842 11.3538 63.6286 11.3538C62.9775 11.3538 62.9775 11.3861 63.4977 11.9726C63.921 12.4282 64.3443 12.5591 65.2878 12.4282C65.9712 12.3313 66.8178 12.4282 67.1442 12.6237C67.6644 12.9161 67.5675 12.9501 66.5577 12.9824C65.1909 12.9824 65.0277 13.2748 65.9066 14.0568C66.6563 14.7402 68.5773 15.1635 68.5773 14.6756C68.5773 14.4801 68.8051 14.3832 69.0652 14.4801C69.3916 14.611 69.5531 14.4801 69.5531 14.1214C69.5531 13.7627 69.7163 13.6335 70.0087 13.7304C70.2688 13.829 70.6598 13.6981 70.8553 13.438C71.0831 13.1779 71.5064 12.9824 71.7988 12.9501C72.1575 12.9501 72.0912 12.8532 71.6033 12.6577C71.0831 12.4622 70.8553 12.0712 70.8553 11.5187C70.8553 10.803 70.7567 10.7044 70.041 10.8999C69.4222 11.0631 69.2267 10.9645 69.2267 10.5735C69.2267 10.2811 68.9666 10.0533 68.6402 10.0533C68.3138 10.0533 67.6967 9.69456 67.2734 9.23896C66.4931 8.42466 65.6465 8.16286 65.6465 8.74936Z" fill="#89BF19"/>
<path d="M119.202 11.0291C119.298 11.1923 119.462 11.3555 119.56 11.3555C119.625 11.3555 119.691 11.1923 119.691 11.0291C119.691 10.8336 119.528 10.7027 119.333 10.7027C119.169 10.7027 119.105 10.8336 119.202 11.0291Z" fill="#89BF19"/>
<path d="M55.9769 13.1776C57.0513 13.7641 57.1159 14.2843 56.1401 14.2843C55.5213 14.2843 55.489 14.3489 55.88 14.6107C56.1401 14.7739 56.9544 14.9371 57.6378 14.9371C58.3875 14.9371 59.1678 15.1649 59.5265 15.4913C59.9175 15.85 60.2422 15.9146 60.47 15.6868C60.9579 15.1989 59.5911 13.6366 58.6459 13.6366C58.2549 13.6366 57.7347 13.4088 57.5069 13.1487C57.2791 12.8886 56.628 12.6608 56.0738 12.6608L55.064 12.6931L55.9769 13.1776Z" fill="#89BF19"/>
<path d="M61.4135 14.2182C61.4135 14.7724 62.2278 15.2603 63.1067 15.2603C64.1488 15.2603 64.312 14.7724 63.4008 14.2828C62.6511 13.8935 61.4135 13.8612 61.4135 14.2182Z" fill="#89BF19"/>
<path d="M48.8148 15.9776C48.978 16.4655 50.6049 16.4332 51.1268 15.913C51.3546 15.6852 51.0299 15.5866 50.0524 15.5866C49.0749 15.5866 48.7162 15.7158 48.8148 15.9776Z" fill="#89BF19"/>
<path d="M119.137 16.139C119.429 16.2037 119.951 16.2037 120.276 16.139C120.568 16.0421 120.31 15.9758 119.691 15.9758C119.072 15.9758 118.811 16.0421 119.137 16.139Z" fill="#89BF19"/>
<path d="M44.1585 16.6608C43.3442 16.824 42.3021 17.2473 41.8142 17.572C41.3586 17.8984 40.8044 18.1908 40.6089 18.1908C39.8609 18.1908 40.3165 18.711 41.3569 19.0374C42.399 19.3638 42.4959 19.2975 42.9855 18.4509C43.6043 17.4411 43.9953 17.3119 44.2877 18.0276C44.4186 18.4509 44.5801 18.4509 45.102 18.1245C45.4607 17.8967 45.6562 17.6043 45.5576 17.4411C45.4607 17.2779 45.5576 17.0178 45.7854 16.8869C46.4705 16.4653 45.6562 16.3344 44.1585 16.6608Z" fill="#89BF19"/>
<path d="M63.2036 17.9956C63.9856 18.6144 65.417 18.679 65.2538 18.0925C65.1569 17.897 64.5381 17.6692 63.8207 17.6046C62.6188 17.5077 62.5865 17.54 63.2036 17.9956Z" fill="#89BF19"/>
<path d="M51.2236 18.0924C51.0927 18.1893 51.2236 18.548 51.516 18.8744C51.8084 19.2008 51.9393 19.6224 51.8084 19.7856C51.516 20.3058 50.1475 20.2089 49.6919 19.6547C49.4641 19.3946 49.0408 19.1668 48.7484 19.1668C48.456 19.1668 48.0327 19.0036 47.8372 18.8081C47.4139 18.3848 45.787 18.6772 45.787 19.1668C45.787 19.3623 45.9502 19.4932 46.1134 19.4932C46.3089 19.4932 46.4398 19.6564 46.4398 19.8196C46.4398 20.0151 46.2443 20.146 46.0488 20.112C45.1699 20.0151 44.7789 20.1443 45.0067 20.503C45.1699 20.7631 45.9842 20.7954 47.6111 20.6662C50.0863 20.4384 50.9975 20.8617 48.881 21.2527C48.2299 21.3836 47.8066 21.6114 47.9035 21.8069C48.1959 22.2625 49.629 22.1656 50.768 21.5791C51.3222 21.2867 52.4612 21.0249 53.2432 20.9926C54.4145 20.9603 54.7409 20.8294 54.8378 20.3415C55.001 19.6258 54.2513 18.7792 54.0235 19.398C53.828 19.9845 52.9491 19.5289 52.5904 18.65C52.3303 17.8986 51.6792 17.6368 51.2236 18.0924Z" fill="#89BF19"/>
<path d="M59.8188 18.7111C60.0789 19.0035 60.0789 19.1667 59.8511 19.1667C59.6556 19.1667 59.3955 19.0035 59.2969 18.8403C59.0045 18.3524 58.4826 18.4493 58.4826 18.9712C58.4826 19.2313 58.2871 19.5254 58.0916 19.59C57.8638 19.6886 58.1885 19.7855 58.8736 19.7855C59.9157 19.8178 60.0126 19.9147 59.8834 20.5012C59.7202 21.0537 59.8188 21.1523 60.4699 21.0537C60.9255 20.9891 61.4134 20.6304 61.6089 20.1425C62.1614 18.8726 61.8367 18.3201 60.5668 18.2861C59.6233 18.2555 59.4924 18.3201 59.8188 18.7111Z" fill="#89BF19"/>
<path d="M65.9712 18.4833C65.9712 18.6465 66.199 18.9389 66.4591 19.1667C66.7515 19.3945 66.8824 19.8178 66.7855 20.1102C66.7209 20.4026 66.7532 20.7936 66.8824 20.9891C67.2411 21.5756 68.902 21.8357 69.4222 21.4124C69.7809 21.12 69.9101 21.1523 70.0733 21.5756C70.2688 22.1298 71.3432 22.2913 71.6356 21.8357C71.7325 21.6725 72.2544 21.6079 72.8409 21.7048C73.492 21.8034 73.9799 21.7048 74.1431 21.4124C74.4032 21.0214 74.5018 21.0537 74.7942 21.5093C75.1852 22.1927 76.7152 22.2913 76.7152 21.6402C76.7152 21.3801 76.9753 21.086 77.2677 20.9891C77.7233 20.7936 77.6264 20.6304 76.7152 20.1102C75.8363 19.556 75.3484 19.4914 74.1431 19.6546C73.3288 19.7855 72.4822 20.0133 72.2544 20.2088C71.9943 20.4043 71.6696 20.4043 71.2769 20.2088C70.8859 19.981 70.4626 19.981 70.0733 20.2088C69.5854 20.4689 69.3899 20.4366 69.1621 20.0133C68.9989 19.7209 68.5433 19.4914 68.1523 19.4914C67.5012 19.4591 67.4689 19.4268 67.9891 19.0358C68.3155 18.808 68.477 18.5156 68.3478 18.417C68.0231 18.0923 65.9712 18.1586 65.9712 18.4833Z" fill="#89BF19"/>
<path d="M39.2098 22.3254C38.4278 22.4563 38.3632 22.5532 38.6896 23.0734C39.016 23.5613 38.982 23.8214 38.5587 24.2787C37.8753 25.0607 37.5166 26.6553 38.0385 26.6553C38.234 26.6553 38.7542 26.9817 39.1452 27.3387C39.8286 27.9575 39.9595 27.9898 40.8707 27.5988C41.4249 27.3387 41.8805 27.0123 41.8805 26.8831C41.8805 26.4275 43.9647 24.6357 45.1037 24.1478C45.918 23.8214 46.1135 23.5953 45.8534 23.3335C45.2652 22.7487 40.7075 22.0653 39.2098 22.3254Z" fill="#89BF19"/>
<path d="M64.0502 23.6598C63.7255 24.4095 63.7255 24.7988 64.0179 25.3207C64.4089 26.1027 65.4833 26.2642 65.1892 25.5162C65.0583 25.1575 65.2538 25.0283 65.9712 25.0283C66.6223 25.0283 67.1102 24.7682 67.5998 24.0508L68.2832 23.0733H67.3397C66.8195 23.0733 65.9389 22.9764 65.4187 22.8778C64.5721 22.7163 64.4089 22.8132 64.0502 23.6598Z" fill="#89BF19"/>
<path d="M60.5022 23.335C59.2969 23.4336 59.1354 23.5305 59.4924 23.9215C60.0449 24.5726 59.2646 25.5501 58.5812 24.9959C58.3534 24.7681 58.061 24.7035 57.9301 24.8004C57.67 25.0605 58.4503 26.0057 58.9076 26.0057C59.1031 26.0057 59.6896 26.3967 60.1775 26.8846C60.9255 27.6003 61.1873 27.6989 61.3811 27.3402C61.5443 27.1124 61.8367 27.0138 62.0322 27.1124C62.2277 27.2416 62.5201 26.9815 62.7479 26.429C63.008 25.681 62.9757 25.4515 62.5201 25.1268C62.1937 24.899 61.8044 24.7035 61.6412 24.7035C61.4457 24.7035 61.5766 24.4111 61.869 24.0847C62.5524 23.335 62.3246 23.2041 60.5022 23.335Z" fill="#89BF19"/>
<path d="M69.8778 24.2786C69.1604 24.8651 68.9003 25.3207 69.0312 25.8086C69.1281 26.1673 69.0635 26.6229 68.9003 26.8184C68.6725 27.1108 68.9972 27.3386 69.9747 27.665C71.2446 28.056 71.2769 28.0883 70.4303 28.2175C69.2267 28.3807 69.4868 29.0964 70.7227 29.0641C71.2429 29.0641 71.7325 29.161 71.8294 29.2919C72.1218 29.6829 76.3548 30.1708 76.484 29.8121C76.5503 29.6166 76.8427 29.6489 77.266 29.8767C77.7216 30.1045 78.048 30.1045 78.1772 29.9413C78.2741 29.7458 77.9494 29.3871 77.4615 29.127C76.2902 28.5082 76.7135 28.4759 78.1772 29.0624C78.796 29.3225 79.3162 29.7135 79.3162 29.8767C79.3162 30.0722 79.5117 30.2354 79.7395 30.2354C79.9996 30.2354 80.4552 30.5278 80.7493 30.8542C81.3018 31.4407 81.3018 31.5053 80.717 31.6362C80.3583 31.7671 80.4246 31.7994 80.9448 31.7671C81.9546 31.7025 83.7447 32.9061 83.9725 33.785C84.0711 34.2083 83.8433 34.7285 83.3537 35.2181C82.8658 35.706 82.6363 36.2279 82.7672 36.5203C82.9627 37.0745 81.6605 37.627 80.5215 37.4315C79.9027 37.3329 78.9915 37.9194 78.9915 38.4413C78.9915 38.8323 82.0192 38.6691 82.2793 38.2781C82.4102 38.1149 82.7672 38.2458 83.1259 38.6045C83.4846 38.9615 84.0048 39.3202 84.2972 39.4511C84.5896 39.5497 84.8514 39.8421 84.8514 40.1022C84.8514 40.4932 86.8047 41.5353 88.6934 42.1201C89.3768 42.3156 89.4431 42.2833 89.149 41.7291C88.9535 41.4027 88.4333 40.9148 87.9777 40.6547C87.5221 40.4269 87.1311 40.1005 87.1311 39.939C87.1311 39.5803 88.3687 39.8098 88.8243 40.2654C89.0521 40.4932 89.3785 40.6564 89.6063 40.6564C89.8341 40.6564 90.0942 40.8519 90.1928 41.0474C90.2897 41.2752 90.322 41.0797 90.2574 40.5595C90.1928 40.0716 90.2897 39.6806 90.4529 39.6806C90.5838 39.6806 90.4852 39.3219 90.1928 38.8663C89.9004 38.4107 89.5417 38.052 89.3462 38.052C88.9875 38.052 87.4898 36.3911 87.4575 35.9678C87.4575 35.8046 87.6853 35.8692 87.9454 36.097C88.3687 36.4557 88.401 36.4234 88.2378 35.9678C88.1392 35.6754 88.1715 35.4459 88.3347 35.4459C88.9212 35.4459 90.3866 36.2602 90.3866 36.5849C90.3866 36.7804 90.679 37.1068 91.0377 37.3329C91.6242 37.6916 91.6888 37.6593 91.6888 37.0728C91.6888 36.7141 91.7857 36.454 91.9489 36.454C92.5677 36.5509 93.0233 36.3894 92.8601 36.1276C92.7615 35.9644 92.8924 35.7366 93.1865 35.6397C93.4466 35.5411 93.5775 35.281 93.4789 35.0855C93.348 34.89 93.0556 34.8254 92.7955 34.9223C92.5677 35.0192 92.2736 34.9546 92.1767 34.7914C92.0458 34.5959 91.6565 34.465 91.2655 34.465C90.7776 34.465 90.679 34.3681 90.9731 34.1726C91.3318 33.9771 91.3318 33.8462 90.9731 33.5861C90.7453 33.3906 90.2897 33.2597 89.9956 33.2597C89.6692 33.2597 88.9212 32.9996 88.3024 32.6732C87.2926 32.119 87.228 31.9898 87.5204 31.1432C87.7159 30.6553 87.976 30.232 88.1715 30.232C88.3347 30.232 88.367 30.0688 88.2701 29.9056C88.1715 29.7101 87.6836 29.6778 87.1957 29.7747C86.48 29.9379 86.3814 29.9056 86.7401 29.5469C87.3589 28.8635 87.1957 28.5694 86.3168 28.7989C85.8289 28.9281 85.5025 28.8635 85.5025 28.6357C85.5025 28.4402 85.2747 28.277 84.9823 28.277C84.7222 28.277 84.5913 28.1138 84.6899 27.9506C85.0163 27.4304 83.9402 27.1703 83.3877 27.6242C82.9967 27.9506 82.8998 27.9506 82.8998 27.6242C82.8998 27.3964 82.6397 27.2978 82.2487 27.3964C81.533 27.5919 81.4021 27.2995 81.924 26.7776C82.4119 26.2897 81.7285 25.7678 80.1985 25.5077C79.0918 25.2799 78.9286 25.3445 78.7654 25.9633C78.5699 26.7113 78.1466 26.8745 77.9188 26.2234C77.8219 25.931 77.6587 25.931 77.2354 26.288C76.5197 26.9068 76.1933 26.5158 76.6489 25.54C76.9413 24.8889 76.8767 24.6611 76.2256 24.0423C75.5422 23.3912 75.3467 23.3589 74.2723 23.7159C73.4903 23.976 73.1979 24.2038 73.458 24.367C73.7181 24.5302 73.5872 24.6594 73.067 24.8226C72.3836 25.0181 72.3513 25.0504 72.9038 25.4737C73.5872 26.0279 73.6212 26.3203 72.9038 26.3203C72.4482 26.3203 72.4482 26.3849 72.9701 26.9714C73.3934 27.4593 73.458 27.7534 73.2302 27.9812C72.8392 28.3722 72.0589 28.0781 72.319 27.6225C72.4159 27.4593 72.3513 27.2638 72.1881 27.1669C72.0249 27.0683 71.7971 26.4512 71.6679 25.8001C71.5047 24.9212 71.6016 24.4656 72.0266 24.01C72.5468 23.4235 72.5468 23.3912 71.7342 23.3912C71.2786 23.3997 70.432 23.7907 69.8778 24.2786Z" fill="#89BF19"/>
<path d="M44.9728 25.1253C42.8886 26.2983 43.2473 27.2741 45.7208 27.3064C46.1441 27.3064 46.3719 27.4373 46.275 27.6328C46.1781 27.796 45.6562 27.9592 45.136 27.9592C44.6158 27.9592 44.0939 28.0901 43.997 28.2856C43.8661 28.4811 44.5835 28.612 45.918 28.612C47.057 28.612 48.4255 28.8075 48.9457 29.003C49.8246 29.394 49.7923 29.4263 48.0668 29.4909C47.0893 29.5555 45.918 29.6864 45.527 29.7833C44.388 30.0111 45.136 30.7608 46.7646 31.0209C47.6112 31.1518 48.0668 31.4119 48.0668 31.7043C48.0668 32.42 50.4434 32.3231 52.5599 31.5751C54.1222 30.9886 54.384 30.9886 55.4567 31.4119C56.628 31.9321 58.1597 31.8029 58.1597 31.2164C58.1597 31.0209 57.8673 30.89 57.4763 30.89C57.0853 30.89 56.9221 30.7591 57.053 30.5313C57.1499 30.3358 57.6718 30.2389 58.192 30.3681C59.6574 30.6605 59.2987 30.0094 57.6055 29.1951C56.4342 28.6426 56.0109 28.2516 55.9446 27.6328C55.88 27.1772 55.6845 26.6893 55.5213 26.5261C55.3581 26.3306 55.2289 25.9396 55.2289 25.6149C55.2289 24.9961 54.3177 24.3773 53.4048 24.3773C52.9492 24.3773 52.8846 24.6051 53.0784 25.6795C53.3062 27.2095 52.8506 27.405 52.3304 26.0059C52.038 25.127 50.9959 24.6068 50.9959 25.3225C50.9959 25.909 49.9215 26.0059 49.5305 25.4857C49.2704 25.0947 48.8794 24.9978 48.2929 25.1593C47.6418 25.3225 47.414 25.2562 47.414 24.8669C47.414 24.1818 46.5028 24.2787 44.9728 25.1253Z" fill="#89BF19"/>
<path d="M96.4114 25.3531C96.1513 25.7764 96.9979 26.6553 97.649 26.6553C97.9091 26.6553 98.3001 26.4598 98.4956 26.232C98.7557 25.8733 98.6588 25.7118 98.0077 25.4177C96.9979 24.9298 96.6715 24.9298 96.4114 25.3531Z" fill="#89BF19"/>
<path d="M63.921 26.8509C63.8241 26.9478 63.8241 27.2419 63.921 27.502C64.0196 27.7944 63.921 27.9576 63.6609 27.893C63.3685 27.8284 63.2053 28.1531 63.2053 28.9028C63.2053 29.9449 63.3022 30.0418 64.6044 30.4651C65.3541 30.7252 65.9729 31.0839 65.9729 31.2471C65.9729 31.378 65.7774 31.4426 65.5173 31.344C65.2572 31.2471 64.9631 31.344 64.8339 31.5395C64.7353 31.735 64.8016 31.8319 65.0294 31.7996C65.7774 31.6041 65.6482 32.4184 64.8339 32.8417C64.3137 33.1341 64.0196 33.5574 64.0196 34.0793C64.0196 34.7627 63.9533 34.795 63.5317 34.4703C63.2716 34.2425 63.0438 33.7869 63.0438 33.4605C63.0438 33.1018 62.9129 32.8417 62.7514 32.8417C62.5882 32.8417 62.1649 32.7448 61.8402 32.6462C61.286 32.483 61.286 32.483 61.8402 32.8417C62.1326 33.0372 62.3944 33.2973 62.3944 33.4282C62.3944 33.7869 57.7381 33.6237 56.6977 33.2004C56.1775 32.9726 55.2323 32.9063 54.5166 33.0049C53.4745 33.2004 53.279 33.3313 53.3453 33.9161C53.4099 34.3071 53.313 34.6658 53.1175 34.6981C52.9543 34.7627 52.7911 34.6335 52.7911 34.438C52.7911 33.8192 50.9347 33.2327 49.8603 33.5591C48.9168 33.8192 46.4416 33.6237 46.4416 33.2667C46.4416 33.1698 46.7017 32.8757 47.0281 32.6479C47.6792 32.16 47.6146 32.16 44.9779 31.6381C44.099 31.4426 42.6659 31.0193 41.787 30.6946C40.4848 30.1727 40.1261 30.1404 39.5413 30.5314C38.9871 30.8901 38.8256 30.8901 38.5638 30.4991C38.336 30.1727 38.2051 30.1727 38.0759 30.4668C37.8158 31.1502 37.197 30.9547 36.2535 29.848C35.7656 29.2615 35.4392 29.0014 35.5378 29.2955C35.7333 29.7834 35.5055 29.9466 33.1935 30.9564C32.6733 31.1842 32.0222 31.5429 31.7281 31.803C31.1739 32.2586 30.329 32.0631 30.6537 31.5429C30.7183 31.412 31.5003 30.9887 32.3146 30.5994C33.1289 30.2084 33.7137 29.7851 33.6168 29.6882C33.5182 29.5573 33.0626 29.6559 32.607 29.8514C32.1514 30.0792 31.468 30.4056 31.0447 30.6011C30.6214 30.7966 30.1658 30.8935 29.9703 30.8612C29.0591 30.698 28.4726 30.9258 28.6681 31.4154C28.8313 31.8387 28.7004 31.871 27.8215 31.6755C27.235 31.5786 26.3238 31.2845 25.7713 31.0567C23.5579 30.1455 22.4512 29.8191 21.2136 29.7545C20.4656 29.7222 19.228 29.559 18.446 29.4281C17.6317 29.2649 16.4604 29.2003 15.8093 29.2326C15.0613 29.2649 14.5071 29.1017 14.2147 28.777C13.9223 28.4183 13.3681 28.2891 12.5215 28.3537C11.7072 28.386 11.1547 28.2568 10.9915 27.995C10.7637 27.6363 10.5682 27.6363 9.94937 28.0919C9.52607 28.3843 8.84267 28.6121 8.45167 28.6121C8.02837 28.6121 7.70367 28.743 7.70367 28.9385C7.70367 29.1017 7.34497 29.2649 6.88937 29.2649C6.07507 29.2649 4.44817 30.5348 4.44817 31.1859C4.44817 31.3814 3.92797 31.6092 3.30917 31.7401C1.74687 32.0325 1.61597 32.3912 2.88587 33.0423C3.47237 33.3347 4.08947 33.7903 4.22037 34.0198C4.35127 34.2799 4.83917 34.4754 5.26247 34.4754C5.71807 34.4754 6.07677 34.6063 6.07677 34.7355C6.07677 34.8987 6.46777 35.1588 6.98797 35.322C7.83457 35.6484 7.80227 35.6807 6.23997 35.9408C5.13327 36.104 4.61137 36.0717 4.51447 35.8116C4.35127 35.2897 3.73247 35.356 2.13787 36.0717L0.73877 36.7228L1.68227 37.0815C2.36567 37.3416 2.52887 37.5048 2.20247 37.7003C1.97467 37.8635 1.91007 38.059 2.07157 38.1559C2.65807 38.5146 5.26247 38.4806 6.01047 38.0913C6.40147 37.8958 6.72617 37.7649 6.76017 37.7989C6.98797 38.6778 6.82477 39.7845 6.40147 39.9154C6.14137 40.0123 5.58717 40.2078 5.19617 40.4033C4.83747 40.5988 4.34957 40.6634 4.18637 40.5342C3.85997 40.3387 2.49317 42.2274 2.49317 42.8785C2.49317 43.074 2.94877 43.3018 3.47067 43.4327C4.02487 43.5636 4.44817 43.7914 4.44817 43.9206C4.44817 44.0838 4.22037 44.1484 3.96027 44.0515C3.37377 43.8237 3.30917 44.4425 3.86337 44.7995C4.09117 44.9304 4.64537 45.0596 5.10097 45.0596C5.75207 45.0596 5.94757 45.2551 6.01217 45.9385C6.11077 46.7528 6.20767 46.8174 6.76187 46.4927C7.24977 46.2326 7.54387 46.2649 7.90087 46.5573C8.22727 46.8174 8.48737 46.8497 8.61657 46.6542C8.74747 46.4587 9.17077 46.3941 9.56007 46.491C10.2435 46.6865 10.2435 46.7188 9.69097 47.8255C9.39857 48.4443 8.77977 49.16 8.25787 49.3878C7.37897 49.8111 7.05257 50.4299 7.73767 50.4299C7.93317 50.4299 8.45337 50.1375 8.90897 49.7788C9.36457 49.4201 9.95107 49.1277 10.1789 49.1277C10.439 49.1277 10.6345 48.8999 10.6345 48.6398C10.6345 48.3797 10.7314 48.1519 10.8946 48.1519C11.0255 48.1519 11.6103 47.8595 12.1968 47.5008C13.0434 46.9806 13.2066 46.7188 12.9465 46.3941C12.6864 46.1017 13.0111 45.6121 14.2487 44.4731C15.7141 43.1063 16.8208 42.7476 16.8208 43.6588C16.8208 43.822 16.6899 43.8866 16.4944 43.7557C16.0388 43.4633 14.8658 44.7978 15.0613 45.3843C15.2568 45.8399 15.3537 45.8399 16.0388 45.3843C16.4621 45.1242 17.0486 44.8964 17.3087 44.8964C17.6997 44.8964 17.7966 44.7009 17.6351 44.2776C17.3427 43.3664 17.9938 43.1386 19.1651 43.7234C19.7193 44.0158 20.3704 44.2436 20.6305 44.2436C20.8583 44.2436 21.0538 44.3745 21.0538 44.536C21.0538 44.6669 22.0313 44.8947 23.2349 44.9916C24.4402 45.1225 25.4806 45.318 25.5792 45.4472C25.6778 45.6104 26.2303 46.0337 26.8168 46.4247C27.5325 46.9449 27.8912 47.0435 27.9881 46.7511C28.085 46.457 28.2482 46.491 28.7038 46.848C29.258 47.3036 29.258 47.2713 29.0302 46.5216C28.8347 45.8059 28.8993 45.8382 29.8122 46.848C30.3324 47.4668 30.7897 48.1502 30.822 48.3457C30.822 48.5412 31.1144 48.9645 31.4731 49.2892C31.8318 49.6156 32.0273 50.0049 31.9287 50.1681C31.8318 50.3313 31.9933 50.4282 32.3197 50.3636C32.743 50.299 32.9708 50.4945 33.0354 50.9824C33.1 51.438 33.2955 51.6335 33.5896 51.5366C33.916 51.4057 33.9806 51.5366 33.8497 52.0245C33.7188 52.5124 33.9806 53.002 34.7286 53.6854C35.3151 54.2056 35.9339 54.6629 36.1277 54.6629C36.3878 54.6629 36.3878 54.7598 36.1277 55.0216C35.4766 55.6727 36.0308 56.5839 37.2021 56.8117C37.8209 56.9086 38.3088 57.2027 38.3088 57.4305C38.3088 57.6583 38.6012 57.9184 38.9276 58.017C39.7419 58.2125 40.7177 59.7425 40.4576 60.3936C40.2944 60.8492 40.2298 60.8492 39.7419 60.3936C38.9939 59.6116 38.1796 59.7102 38.6352 60.4922C38.8307 60.8832 38.9276 62.7056 38.863 64.9853C38.7321 68.5349 38.8307 69.152 39.6773 70.6174C39.8082 70.8775 40.036 71.3331 40.1652 71.5949C40.2961 71.855 40.4576 72.1491 40.5562 72.246C40.6548 72.3429 41.0441 72.9617 41.3705 73.6451C41.7938 74.4917 42.4126 75.0459 43.3238 75.4692C44.4628 75.9571 44.7569 76.3158 45.2448 77.7812C45.6035 78.7247 46.2223 79.8654 46.6779 80.321C47.1981 80.8429 47.4259 81.3631 47.329 81.7541C47.1981 82.2097 47.4259 82.5361 48.111 82.9254C48.6312 83.2518 49.1531 83.8043 49.25 84.163C49.4455 84.945 51.3342 86.8983 51.3342 86.3118C51.3342 86.1163 51.1387 85.8239 50.9109 85.693C50.6831 85.5621 50.2921 84.911 50.032 84.2939C49.6087 83.1872 48.0141 80.6797 47.1998 79.8008C46.972 79.573 46.7765 79.0188 46.7765 78.5955C46.7765 77.3579 48.0464 77.9767 48.7298 79.539C49.0562 80.287 49.8688 81.3614 50.4876 81.9802C51.1387 82.599 51.6589 83.2824 51.6589 83.5102C51.6589 83.7703 51.7558 83.9658 51.919 83.9658C52.0499 83.9658 52.7979 84.7155 53.5799 85.6267C54.622 86.8303 55.0453 87.6123 55.0453 88.3943C55.1099 89.4041 56.2829 91.1296 56.934 91.1296C57.0972 91.1296 58.3331 91.6498 59.7016 92.3009C61.8181 93.2784 62.4369 93.4399 63.5759 93.2444C64.7795 93.0812 65.0736 93.1798 66.0494 93.9941C66.981 94.8288 69.1621 95.8063 70.041 95.8386C70.5289 95.8386 72.0589 97.695 72.1898 98.443C72.2867 98.8017 72.5162 99.0941 72.7423 99.0941C72.9701 99.0941 73.492 99.3865 73.8813 99.7775C74.2723 100.136 74.988 100.56 75.5099 100.689C75.9978 100.786 76.3888 101.047 76.3888 101.243C76.3888 101.438 76.552 101.471 76.7152 101.372C76.9107 101.243 76.9753 101.046 76.8784 100.884C76.6183 100.461 77.6264 99.8421 78.2775 100.038C79.2873 100.364 78.9609 101.632 77.7573 101.991C77.1062 102.186 76.7152 102.479 76.7152 102.837C76.7152 103.164 76.4874 103.489 76.2273 103.619C75.9672 103.716 75.7394 104.01 75.7394 104.271C75.7394 104.498 75.5116 104.791 75.2515 104.922C74.9251 105.019 74.8282 105.41 74.9251 106.093C75.022 106.613 75.1529 107.492 75.2515 108.014C75.3484 108.794 75.1529 109.219 74.1771 110.26C72.8426 111.693 72.1592 112.929 72.1592 113.971C72.1592 114.426 72.3224 114.557 72.6471 114.426C73.3951 114.166 73.2319 114.686 72.3207 115.533C71.7019 116.12 71.6033 116.412 71.8651 116.868C72.0283 117.226 72.0929 117.486 71.962 117.486C71.8311 117.486 72.0912 117.845 72.5162 118.268C73.3305 119.083 74.0462 120.385 75.7394 124.096C76.6183 126.017 76.977 126.408 78.4747 127.255C80.7544 128.557 81.2746 129.176 81.3392 130.706C81.4378 132.854 80.9805 137.999 80.6235 138.65C80.4603 138.976 80.2971 139.593 80.2971 140.016C80.2971 142.653 80.0047 144.901 79.4505 146.3C79.1241 147.179 78.7331 147.961 78.6362 148.025C78.5053 148.09 78.473 148.676 78.5716 149.36C78.6702 150.043 78.5716 150.89 78.3761 151.281C77.9528 152.095 78.2452 153.071 78.864 152.843C79.1904 152.712 79.2873 153.103 79.2227 154.601C79.1904 155.675 79.0595 156.554 78.9626 156.554C78.8317 156.554 78.6702 157.01 78.5393 157.564C78.3761 158.41 78.2469 158.507 77.8882 158.215C77.5618 157.955 77.368 157.923 77.2048 158.183C77.1062 158.346 77.2371 158.606 77.5312 158.703C77.8236 158.834 77.9868 159.126 77.8899 159.354C77.7913 159.614 77.8576 159.81 78.0531 159.81C78.2486 159.81 78.2486 160.037 78.0208 160.461C77.8253 160.852 77.7284 161.404 77.8253 161.698C77.9222 161.991 78.0854 162.74 78.1517 163.359C78.2163 164.043 78.6073 164.726 79.1615 165.214C80.2036 166.125 80.2036 166.125 81.5381 165.637C82.4493 165.345 82.5156 165.182 82.3524 164.204C82.2232 163.325 82.3201 163.065 82.8743 162.771C83.233 162.543 83.5577 162.12 83.5577 161.793C83.5577 161.467 83.9164 160.947 84.372 160.654C85.2509 160.068 85.4787 159.157 84.6984 159.157C84.4383 159.157 84.0473 158.83 83.8518 158.441C83.5254 157.822 83.5917 157.627 84.5029 156.879C85.0554 156.391 85.5127 155.772 85.5127 155.48C85.5127 155.187 85.6436 154.893 85.8051 154.796C85.9683 154.699 86.0006 154.016 85.9343 153.299C85.7711 151.996 85.7711 151.996 86.7486 152.192C87.7907 152.42 88.0831 152.16 88.1817 150.89C88.248 150.206 88.4418 150.043 89.0929 150.043C90.7538 150.043 92.2498 149.392 92.6425 148.545C92.9026 147.927 92.9349 147.568 92.6748 147.275C92.4793 147.048 92.3824 146.689 92.4147 146.527C92.481 146.332 92.2192 145.941 91.8622 145.681C91.2111 145.193 91.2434 145.193 92.0577 145.161C92.5133 145.161 93.0012 145.258 93.0998 145.388C93.2307 145.487 93.7186 145.616 94.1742 145.649C95.1177 145.681 96.9095 143.923 96.9095 142.947C96.9418 142.361 97.9839 140.928 98.4395 140.928C99.026 140.895 100.165 138.551 100.165 137.378C100.165 136.598 100.393 135.947 100.75 135.653C101.792 134.709 103.745 133.764 104.69 133.764C105.178 133.764 105.829 133.504 106.089 133.177C106.839 132.298 108.01 130.117 107.847 129.922C107.749 129.857 107.847 129.466 108.043 129.108C108.238 128.749 108.434 127.545 108.466 126.439C108.498 125.072 108.694 124.225 109.085 123.802C111.494 121.099 112.048 120.123 111.917 118.789C111.786 117.323 111.494 116.835 110.875 116.835C110.484 116.835 109.67 116.38 109.051 115.858C107.976 114.914 107.065 114.686 104.364 114.783C103.777 114.783 103.517 114.652 103.55 114.295C103.582 113.938 103.094 113.58 102.181 113.287C100.879 112.799 100.782 112.832 100.326 113.451C100 113.938 99.6091 114.102 99.0243 114.003C98.5687 113.906 98.21 113.711 98.21 113.547C98.21 113.384 97.9822 113.352 97.7221 113.451C96.9724 113.743 97.1356 113.124 98.0485 112.148C98.9274 111.205 99.0583 110.814 98.5687 110.487C98.4055 110.391 98.1777 109.901 98.0485 109.413C97.7561 108.079 95.8028 106.744 94.1742 106.744C93.0675 106.744 92.6119 106.516 91.4389 105.41C90.56 104.595 89.8443 104.172 89.5179 104.271C89.1592 104.4 89.0946 104.335 89.1915 103.978C89.3224 103.718 89.2561 103.424 89.0946 103.327C88.9314 103.23 88.8668 102.904 88.9637 102.579C89.1269 102.091 89.0946 102.091 88.7682 102.611C88.5727 102.904 88.248 103.099 88.0848 103.002C87.9216 102.871 87.857 102.644 87.9539 102.482C88.2463 102.059 87.2382 102.123 86.4885 102.581C85.9683 102.907 85.7065 102.907 85.1863 102.613C84.8599 102.385 84.3397 102.287 84.0473 102.385C83.7549 102.514 83.2653 102.353 82.9083 102.027C82.4527 101.636 82.0294 101.539 81.2814 101.7C80.3362 101.896 80.2716 101.993 80.4671 102.905C80.6626 103.653 80.598 103.849 80.2716 103.752C79.7497 103.557 79.816 101.44 80.3039 101.279C80.4994 101.214 80.5317 101.018 80.4348 100.855C80.3362 100.66 80.0438 100.692 79.7174 100.952C79.425 101.18 79.2941 101.212 79.425 101.017C79.5236 100.821 79.4573 100.398 79.2295 100.106C78.7739 99.4868 77.7964 99.3899 76.331 99.7469C75.6153 99.9424 75.2889 99.8115 74.6055 99.0635C73.8558 98.2169 73.7912 97.9245 73.9221 96.199C74.1176 93.7578 73.7589 93.3991 71.4146 93.3991H69.6245L69.8523 92.3247C70.2433 90.6638 70.4065 90.1113 70.8944 88.906C71.1545 88.2549 71.0899 88.1903 70.0801 88.1903C68.5824 88.1903 67.9313 88.4827 67.9313 89.1338C67.9313 90.0127 67.117 90.8916 66.2704 90.9902C64.4463 91.218 63.4705 90.7947 62.5593 89.4279C61.5818 87.9965 61.4526 86.5311 61.9728 83.3402C62.2006 81.8748 62.3961 81.4838 63.2104 80.9636C64.9036 79.9538 65.3915 79.8246 66.7583 80.0847C68.6793 80.4757 68.8085 80.4434 69.004 79.7583C69.1349 79.2704 69.4273 79.1395 70.6326 79.2058C71.4469 79.2381 72.3258 79.4336 72.5859 79.6614C72.9446 79.9878 73.1401 79.9878 73.3033 79.726C73.662 79.1735 75.0934 80.6695 75.0934 81.5824C75.0934 82.0057 75.4521 82.8846 75.8737 83.5357L76.688 84.707L77.0467 83.925C77.3391 83.2739 77.2745 82.752 76.7543 81.3206C76.3633 80.3771 76.0709 79.2364 76.0709 78.8454C76.0709 78.162 78.0565 75.8177 78.6107 75.8177C78.7739 75.8177 79.3604 75.3621 79.9469 74.7756C80.6303 74.0922 80.8581 73.6689 80.598 73.538C80.3379 73.3425 80.3379 73.2456 80.6626 73.0824C80.989 72.9515 81.0213 72.8223 80.7612 72.7237C80.5334 72.6268 80.4348 72.2358 80.5334 71.9094C80.632 71.5507 80.5657 71.2583 80.3702 71.2583C80.1747 71.2583 80.1101 70.9319 80.207 70.5749C80.4025 69.9238 80.4348 69.9238 80.7935 70.8027C81.1522 71.5847 81.2491 71.6493 81.4446 71.1937C81.5755 70.9013 81.5755 70.478 81.4446 70.2825C81.346 70.1193 81.4446 69.9561 81.7047 69.9561C82.2266 69.9561 82.6822 69.1095 82.4221 68.6539C82.2912 68.4261 83.2364 67.9382 84.7341 67.5149C85.222 67.384 85.4498 67.0593 85.4498 66.5374C85.4498 65.4953 85.9377 64.9088 87.2399 64.3886C87.8264 64.1608 88.3466 63.8684 88.4452 63.7698C88.7376 63.3788 90.5617 62.9232 91.2128 63.0541C91.733 63.185 91.6361 63.2819 90.7249 63.576C90.1061 63.7715 89.5536 64.1948 89.4873 64.4872C89.3564 65.1706 90.1707 65.2692 90.6926 64.6504C90.8881 64.3903 91.6361 63.9993 92.3535 63.7715C93.0692 63.5437 93.6557 63.2173 93.6557 63.0558C93.6557 62.9266 93.8512 62.7957 94.1113 62.7957C94.3714 62.7957 94.6978 62.6325 94.827 62.4047C94.9902 62.1769 94.8916 62.1123 94.5346 62.2415C94.1436 62.3724 94.079 62.3061 94.2082 61.9151C94.3391 61.5564 94.2745 61.4595 94.045 61.6227C93.8172 61.7519 93.654 62.0783 93.654 62.3384C93.654 63.0218 91.6021 62.9249 90.951 62.2075C90.6246 61.8811 90.3985 61.3609 90.3985 61.1008C90.3985 60.8084 90.1384 60.482 89.8443 60.3528C89.3241 60.125 89.3564 60.0604 90.0075 59.8972C90.985 59.6371 90.951 59.0829 89.9429 58.9537C88.9994 58.8228 87.3385 59.6048 86.1009 60.7761C85.5807 61.2317 85.1897 61.5258 85.1897 61.3949C85.1897 61.0039 87.534 58.5627 87.925 58.5627C88.1205 58.5627 88.4775 58.2703 88.7053 57.9116C89.064 57.3251 89.455 57.2605 91.9948 57.2605C94.4037 57.2605 94.9902 57.1636 95.609 56.6094C96.0323 56.2507 96.6834 55.9583 97.1067 55.9583C98.6367 55.9583 98.8968 53.9081 97.4331 53.1907C96.5865 52.7674 96.4233 52.7674 95.9354 53.1907C95.3489 53.7126 94.6332 53.8418 94.6332 53.4185C94.6332 53.2553 95.1534 52.9306 95.7722 52.7028L96.9435 52.2472L95.7399 51.7916C94.1776 51.1405 93.1015 50.0015 93.1015 48.9594C93.1015 48.5038 92.8414 47.8527 92.549 47.5263C92.2566 47.2339 92.0288 46.8429 92.0288 46.712C92.0288 46.5811 91.801 46.1255 91.5086 45.7022C90.8898 44.791 90.2064 44.9542 89.914 46.0932C89.8154 46.5488 89.6216 46.8412 89.523 46.7443C89.4261 46.6474 89.132 46.7443 88.8719 47.0044C88.3194 47.5586 87.7975 47.6232 87.7975 47.1676C87.7975 46.9721 87.4388 46.8412 87.0478 46.8412C86.3321 46.8412 86.2658 46.7103 86.3644 45.2126C86.3967 44.3337 86.3321 43.618 86.2335 43.618C85.5824 43.7149 85.1268 43.4871 84.4434 42.7391C83.7923 42.0234 83.3044 41.8602 81.5789 41.7956C79.2669 41.6647 78.8113 41.7956 79.3655 42.479C79.6579 42.8377 79.6579 43.0315 79.3332 43.4225C79.0408 43.7489 79.0408 43.9104 79.3009 43.9104C79.8211 43.9104 79.7565 45.2772 79.2023 46.0269C78.779 46.6134 78.8436 46.7749 79.6902 47.7524C80.2104 48.3389 80.6354 49.0223 80.6354 49.2824C80.6354 49.9012 79.1054 51.659 78.3234 51.8868C77.8678 52.05 77.7692 52.2132 77.9647 52.4733C78.7144 53.4508 78.7467 56.5754 77.997 56.0875C77.8338 55.9906 77.7046 56.0875 77.7046 56.283C77.7046 56.4785 77.2813 56.3153 76.7611 55.892C75.7836 55.144 75.328 53.9064 75.3603 52.2778C75.3926 51.4635 75.2957 51.3989 74.1227 51.3989C73.4393 51.3989 72.7542 51.2357 72.6573 51.0725C72.5587 50.877 72.2017 50.7461 71.8753 50.7461C71.5489 50.7461 70.8978 50.3874 70.4099 49.9318C69.5956 49.1838 67.9024 48.6296 66.9912 48.8574C66.7311 48.922 66.437 48.531 66.2415 47.8799C66.046 47.1642 65.7859 46.8378 65.298 46.8378C64.9393 46.8378 64.5823 46.61 64.4514 46.3176C64.159 45.5033 64.9393 43.4208 65.9491 42.3124C66.471 41.7582 66.7957 41.238 66.6971 41.1394C66.6002 41.0425 66.7617 40.9762 67.0558 40.9762C68.0333 40.9762 67.967 40.3251 66.8926 39.8695C65.689 39.3476 66.437 39.1538 67.7392 39.674C68.4226 39.9341 68.5858 39.9018 68.5858 39.4785C68.5858 39.1198 68.7813 39.0229 69.106 39.1521C69.7248 39.3799 70.8638 38.8257 70.8638 38.2409C70.8638 38.0131 70.2773 37.5575 69.5616 37.2311C68.8442 36.9047 68.3563 36.5154 68.4549 36.3845C68.5195 36.2213 69.106 36.3522 69.7248 36.6446C70.636 37.1002 70.9284 37.1002 71.3534 36.7415C71.6458 36.5137 71.809 36.1227 71.7121 35.8949C71.5166 35.407 72.3955 35.016 72.6556 35.4393C72.7865 35.6348 73.1112 35.7657 73.4036 35.7657C73.7946 35.7657 73.8269 35.6688 73.5345 35.3747C72.9157 34.7559 73.0789 34.3003 73.73 34.8868C74.4457 35.5379 75.1308 35.6025 75.6833 35.05C76.2035 34.5298 76.1712 33.6509 75.5864 33.1613C75.3263 32.9335 75.0985 32.5425 75.0985 32.2824C75.0985 31.99 75.294 31.8591 75.5864 31.99C76.2698 32.2501 76.2052 31.4358 75.4878 31.0125C74.4457 30.3614 72.8188 30.1336 72.8188 30.6215C72.8188 30.8816 72.982 31.2403 73.2098 31.4681C73.5022 31.7605 73.4376 31.8914 73.0466 32.0546C72.7542 32.1515 72.4941 32.4133 72.4941 32.6411C72.4941 32.8366 72.2017 33.3568 71.843 33.8124L71.214 34.6318L70.4643 33.9161C69.9118 33.3636 69.8455 33.0695 70.1056 32.8094C70.3657 32.5493 70.398 32.2229 70.1702 31.7996C69.7469 31.0176 69.3236 31.0516 69.0635 31.8642C68.7711 32.8077 68.3461 32.6785 68.086 31.5378C67.9228 30.7898 67.695 30.5603 67.0762 30.5603C66.2296 30.5603 66.0664 30.2679 66.6206 29.7137C66.8807 29.4536 66.8161 29.2258 66.4574 28.9317C66.1973 28.7039 65.9695 28.2483 65.9695 27.9219C65.9695 27.5309 65.6108 27.1739 65.1229 26.9784C64.1488 26.5908 64.1811 26.5908 63.921 26.8509Z" fill="#89BF19"/>
<path d="M61.4135 30.725C61.4135 30.9851 61.218 31.2129 61.0225 31.2129C60.1759 31.2452 61.9014 32.1904 62.7803 32.1904C63.9193 32.1904 63.9516 31.7671 62.8449 30.9205C61.8045 30.1062 61.4135 30.0739 61.4135 30.725Z" fill="#89BF19"/>
<path d="M88.044 31.1163C88.2718 31.2132 88.5659 31.1809 88.6628 31.084C88.7937 30.9854 88.5982 30.8885 88.2395 30.9208C87.8825 30.9208 87.7839 31.0177 88.044 31.1163Z" fill="#89BF19"/>
<path d="M79.8738 33.2971C79.7769 33.5249 79.8415 33.8836 80.037 34.0791C80.4926 34.5347 81.5993 33.9822 81.5993 33.3311C81.5993 32.7106 80.1016 32.6783 79.8738 33.2971Z" fill="#89BF19"/>
<path d="M72.1898 37.5301C71.9943 38.0503 71.8974 38.5399 71.9943 38.6368C72.0589 38.7354 71.9943 38.9955 71.7988 39.2556C71.5064 39.582 71.5387 39.6789 71.928 39.6789C72.1881 39.6789 72.4822 39.8421 72.5468 40.0376C72.6114 40.2654 72.9378 40.2654 73.5243 39.973C74.0122 39.7775 74.3386 39.4511 74.24 39.3219C73.9476 38.834 74.8588 38.9955 75.4453 39.5497C75.8363 39.9084 76.2273 40.0053 76.6166 39.8098C77.1368 39.582 77.1368 39.5497 76.4857 39.4511C76.0624 39.3542 75.7377 39.1247 75.7377 38.9309C75.7377 38.5076 73.9799 37.4009 73.2965 37.4009C73.0687 37.4009 72.8086 37.2054 72.71 36.9776C72.6131 36.7804 72.3853 37.0082 72.1898 37.5301Z" fill="#89BF19"/>
<path d="M28.2057 47.8172C28.2057 47.9804 28.4335 48.1436 28.6936 48.1436C28.9537 48.1436 29.1815 47.9804 29.1815 47.8172C29.1815 47.6217 28.9537 47.4908 28.6936 47.4908C28.4335 47.4908 28.2057 47.6217 28.2057 47.8172Z" fill="#89BF19"/>
<path d="M13.3918 48.111C13.2949 48.3065 13.0654 48.4034 12.9039 48.3065C12.7424 48.2096 12.5452 48.2742 12.4483 48.4374C12.3174 48.6006 12.416 48.8607 12.6115 48.9576C13.0025 49.2177 14.1415 48.2742 13.8168 47.9801C13.7182 47.8492 13.5227 47.9478 13.3918 48.111Z" fill="#89BF19"/>
<path d="M29.2154 48.9899C29.2154 49.3486 29.3123 49.4455 29.4109 49.1854C29.5078 48.9576 29.4755 48.6652 29.3786 48.5666C29.28 48.4357 29.1831 48.6312 29.2154 48.9899Z" fill="#89BF19"/>
<path d="M30.8101 50.2601C30.8101 50.748 31.3966 51.5623 31.5921 51.3668C31.6907 51.2699 31.5598 50.9112 31.2997 50.5525C31.0379 50.2261 30.8424 50.0646 30.8101 50.2601Z" fill="#89BF19"/>
<path d="M5.74188 50.9109C5.22168 51.5297 5.70958 51.5297 6.52388 50.9109C7.04408 50.5199 7.07808 50.423 6.65478 50.423C6.39298 50.4213 5.96968 50.6491 5.74188 50.9109Z" fill="#89BF19"/>
<path d="M3.65771 52.0175C3.52681 52.1807 3.75461 52.2453 4.11331 52.1484C4.86131 51.9529 4.95991 51.7251 4.30881 51.7251C4.04871 51.7234 3.75631 51.8543 3.65771 52.0175Z" fill="#89BF19"/>
<path d="M31.2011 52.9933C31.2657 53.2211 31.4288 53.3843 31.5597 53.3843C31.9507 53.352 31.8522 52.8964 31.4629 52.7332C31.2334 52.6686 31.1025 52.7978 31.2011 52.9933Z" fill="#89BF19"/>
<path d="M97.2903 56.8353C96.9316 57.3555 96.5423 58.2344 96.4114 58.7886C96.3128 59.3751 96.0527 59.863 95.8912 59.863C95.7297 59.863 95.5988 60.0262 95.5988 60.2217C95.5988 60.4172 96.1853 60.5481 96.9979 60.5141C99.2776 60.4172 99.3099 60.4172 98.822 61.0683C98.4633 61.5562 98.5296 61.5239 99.1144 61.036C99.8318 60.4172 99.8641 60.4172 100.287 61.0037C100.58 61.427 100.775 61.4916 100.938 61.1992C101.068 61.0037 100.938 60.7436 100.646 60.645C100.354 60.5141 100.19 60.2217 100.287 59.9939C100.384 59.7338 100.32 59.5383 100.124 59.5383C99.9287 59.5383 99.8318 59.3105 99.961 59.0504C100.09 58.6917 99.9287 58.5625 99.3422 58.5625C98.9189 58.5625 98.4633 58.3993 98.3647 58.2361C98.2338 58.0406 98.006 57.976 97.8445 58.0729C97.6813 58.2038 97.5521 58.1375 97.5521 57.9437C97.5521 57.7805 97.683 57.5527 97.8445 57.4558C98.2355 57.1957 98.5279 55.9581 98.2032 55.9581C98.04 55.9564 97.649 56.3474 97.2903 56.8353Z" fill="#89BF19"/>
<path d="M35.922 57.454C36.313 57.7141 37.0287 58.3329 37.5506 58.7562C38.3972 59.4719 39.2761 59.7983 39.2761 59.3427C39.2761 58.7885 37.2905 57.3231 36.3453 57.1293C35.2386 56.9338 35.2386 56.9338 35.922 57.454Z" fill="#89BF19"/>
<path d="M73.883 86.7877C73.0041 87.1141 73.4937 87.4711 74.4049 87.1787C75.1529 86.9186 75.5762 86.9509 76.3582 87.3419C76.8801 87.6343 77.5312 87.8621 77.7573 87.8621C77.9851 87.8621 78.5716 88.2208 79.0595 88.6764C79.646 89.1983 80.3294 89.4907 81.0128 89.4907H82.0872L81.2729 88.8396C80.8173 88.4809 80.1985 88.1885 79.9044 88.1885C79.5797 88.1885 79.3196 88.0253 79.3196 87.8621C79.3196 87.6666 79.1241 87.5357 78.864 87.5357C78.6362 87.5357 77.9851 87.3079 77.4972 87.0478C76.5843 86.5922 74.6973 86.429 73.883 86.7877Z" fill="#89BF19"/>
<path d="M11.2754 89.8152C11.2754 89.9784 11.4386 90.1416 11.6018 90.1416C11.7973 90.1416 11.9282 89.9784 11.9282 89.8152C11.9282 89.6197 11.7973 89.4888 11.6018 89.4888C11.4386 89.4888 11.2754 89.6197 11.2754 89.8152Z" fill="#89BF19"/>
<path d="M83.4863 90.1078C83.9419 90.5957 83.9096 90.662 83.0307 90.8235L82.0872 91.0513L83.2262 91.1159C83.845 91.1805 84.593 91.1805 84.8548 91.1482C85.1149 91.1159 85.7337 91.0496 86.2216 91.0173C86.7418 90.985 87.1328 90.8541 87.1328 90.7572C87.1328 90.3985 85.2118 89.7151 84.0728 89.6505C83.0647 89.5876 82.9984 89.6522 83.4863 90.1078Z" fill="#89BF19"/>
<path d="M88.4349 91.1174C88.4349 91.2806 88.6627 91.4438 88.9551 91.4438C89.2152 91.4438 89.3461 91.2806 89.2475 91.1174C89.1489 90.9219 88.9211 90.791 88.7273 90.791C88.5658 90.7927 88.4349 90.9219 88.4349 91.1174Z" fill="#89BF19"/>
<path d="M79.255 91.3456C79.4505 91.4102 79.8415 91.4102 80.0693 91.3456C80.2648 91.2487 80.1016 91.1824 79.646 91.1824C79.1904 91.1824 79.0272 91.2487 79.255 91.3456Z" fill="#89BF19"/>
<path d="M98.5278 112.93C98.5278 113.452 98.691 113.614 99.2758 113.517C99.6668 113.452 99.9932 113.19 99.9932 112.93C99.9932 112.67 99.6668 112.41 99.2758 112.344C98.691 112.247 98.5278 112.41 98.5278 112.93Z" fill="#89BF19"/>
<path d="M78.0819 154.115C78.0819 154.635 78.1465 154.83 78.2451 154.506C78.3097 154.213 78.3097 153.756 78.2451 153.528C78.1482 153.334 78.0819 153.562 78.0819 154.115Z" fill="#89BF19"/>
<path d="M78.6685 165.836C78.8963 166.096 79.221 166.324 79.3842 166.324C79.5474 166.324 79.4828 166.096 79.1887 165.836C78.9286 165.576 78.6022 165.348 78.473 165.348C78.3761 165.346 78.4407 165.574 78.6685 165.836Z" fill="#89BF19"/>
<path d="M80.1662 166.616C80.0353 166.844 80.003 167.104 80.1016 167.203C80.394 167.495 80.7204 167.072 80.5572 166.616C80.4263 166.259 80.3617 166.259 80.1662 166.616Z" fill="#89BF19"/>
</svg>
