<svg width="92" height="76" viewBox="0 0 92 76" fill="none" xmlns="http://www.w3.org/2000/svg">
<path d="M60.375 50.7083L64.9583 46.3333L56.2083 37.5833C56.9722 36.4028 57.5458 35.1528 57.9291 33.8333C58.3125 32.5139 58.5028 31.125 58.5 29.6667C58.5 25.5695 57.0583 22.1139 54.175 19.3C51.2916 16.4861 47.8722 15.0806 43.9166 15.0833C39.9583 15.0833 36.5375 16.4889 33.6541 19.3C30.7708 22.1111 29.3305 25.5667 29.3333 29.6667C29.3333 33.7639 30.775 37.2195 33.6583 40.0333C36.5416 42.8472 39.9611 44.2528 43.9166 44.25C45.375 44.25 46.7472 44.0583 48.0333 43.675C49.3194 43.2917 50.5861 42.7195 51.8333 41.9583L60.375 50.7083ZM43.9166 38C41.625 38 39.6625 37.1833 38.0291 35.55C36.3958 33.9167 35.5805 31.9556 35.5833 29.6667C35.5833 27.375 36.4 25.4125 38.0333 23.7792C39.6666 22.1458 41.6278 21.3306 43.9166 21.3333C46.1389 21.3333 48.0833 22.15 49.75 23.7833C51.4166 25.4167 52.25 27.3778 52.25 29.6667C52.25 31.9583 51.4333 33.9208 49.8 35.5542C48.1666 37.1875 46.2055 38.0028 43.9166 38ZM4.33331 75.5C3.15275 75.5 2.16247 75.1 1.36247 74.3C0.562474 73.5 0.163863 72.5111 0.16664 71.3333C0.16664 70.1528 0.56664 69.1625 1.36664 68.3625C2.16664 67.5625 3.15553 67.1639 4.33331 67.1667H87.6666C88.8472 67.1667 89.8375 67.5667 90.6375 68.3667C91.4375 69.1667 91.8361 70.1556 91.8333 71.3333C91.8333 72.5139 91.4333 73.5042 90.6333 74.3042C89.8333 75.1042 88.8444 75.5028 87.6666 75.5H4.33331ZM12.6666 63C10.375 63 8.41247 62.1833 6.77914 60.55C5.14581 58.9167 4.33053 56.9556 4.33331 54.6667V8.83334C4.33331 6.54167 5.14997 4.57917 6.78331 2.94584C8.41664 1.31251 10.3778 0.497229 12.6666 0.500007H79.3333C81.625 0.500007 83.5875 1.31667 85.2208 2.95001C86.8541 4.58334 87.6694 6.54445 87.6666 8.83334V54.6667C87.6666 56.9583 86.85 58.9208 85.2167 60.5542C83.5833 62.1875 81.6222 63.0028 79.3333 63H12.6666Z" fill="#89BF19"/>
</svg>
