<svg width="84" height="84" viewBox="0 0 84 84" fill="none" xmlns="http://www.w3.org/2000/svg">
<path fill-rule="evenodd" clip-rule="evenodd" d="M38.8667 0.333496C28.8964 1.08478 19.5258 5.38577 12.4557 12.4558C5.38565 19.5259 1.08466 28.8965 0.333374 38.8668H12.75C13.1615 38.8668 13.569 38.9479 13.9491 39.1053C14.3293 39.2628 14.6747 39.4936 14.9656 39.7846C15.2566 40.0755 15.4874 40.4209 15.6449 40.8011C15.8023 41.1812 15.8834 41.5887 15.8834 42.0002C15.8834 42.4116 15.8023 42.8191 15.6449 43.1992C15.4874 43.5794 15.2566 43.9248 14.9656 44.2158C14.6747 44.5067 14.3293 44.7375 13.9491 44.895C13.569 45.0525 13.1615 45.1335 12.75 45.1335H0.333374C1.08466 55.1038 5.38565 64.4744 12.4557 71.5445C19.5258 78.6146 28.8964 82.9156 38.8667 83.6668V71.2502C38.8667 70.4192 39.1968 69.6222 39.7844 69.0346C40.3721 68.447 41.169 68.1168 42 68.1168C42.8311 68.1168 43.628 68.447 44.2156 69.0346C44.8033 69.6222 45.1334 70.4192 45.1334 71.2502V83.6668C55.1037 82.9156 64.4743 78.6146 71.5444 71.5445C78.6144 64.4744 82.9154 55.1038 83.6667 45.1335H71.25C70.419 45.1335 69.6221 44.8034 69.0344 44.2158C68.4468 43.6282 68.1167 42.8312 68.1167 42.0002C68.1167 41.1692 68.4468 40.3722 69.0344 39.7846C69.6221 39.197 70.419 38.8668 71.25 38.8668H83.6667C82.9154 28.8965 78.6144 19.5259 71.5444 12.4558C64.4743 5.38577 55.1037 1.08478 45.1334 0.333496V12.7502C45.1334 13.5812 44.8033 14.3782 44.2156 14.9658C43.628 15.5534 42.8311 15.8835 42 15.8835C41.169 15.8835 40.3721 15.5534 39.7844 14.9658C39.1968 14.3782 38.8667 13.5812 38.8667 12.7502V0.333496ZM30.5084 42.0002C30.5084 40.271 31.9125 38.8668 33.6417 38.8668H38.8667V33.6418C38.8667 32.8108 39.1968 32.0138 39.7844 31.4262C40.3721 30.8386 41.169 30.5085 42 30.5085C42.8311 30.5085 43.628 30.8386 44.2156 31.4262C44.8033 32.0138 45.1334 32.8108 45.1334 33.6418V38.8668H50.3584C51.1894 38.8668 51.9864 39.197 52.574 39.7846C53.1616 40.3722 53.4917 41.1692 53.4917 42.0002C53.4917 42.8312 53.1616 43.6282 52.574 44.2158C51.9864 44.8034 51.1894 45.1335 50.3584 45.1335H45.1334V50.3585C45.1334 51.1895 44.8033 51.9865 44.2156 52.5741C43.628 53.1617 42.8311 53.4918 42 53.4918C41.169 53.4918 40.3721 53.1617 39.7844 52.5741C39.1968 51.9865 38.8667 51.1895 38.8667 50.3585V45.1335H33.6417C32.8107 45.1335 32.0137 44.8034 31.4261 44.2158C30.8385 43.6282 30.5084 42.8312 30.5084 42.0002Z" fill="#89BF19"/>
</svg>
