<svg width="18" height="14" viewBox="0 0 18 14" fill="none" xmlns="http://www.w3.org/2000/svg">
<path d="M17.4627 13.3314L16.599 8.00332C16.5861 7.91953 16.5131 7.85938 16.4293 7.85938H10.809C10.7252 7.85938 10.6521 7.91953 10.6393 8.00332L9.77558 13.3314C9.77344 13.34 9.77344 13.3508 9.77344 13.3594C9.77344 13.4539 9.85078 13.5312 9.94531 13.5312H17.293C17.3016 13.5312 17.3123 13.5313 17.3209 13.5291C17.4133 13.5141 17.4777 13.426 17.4627 13.3314ZM7.36074 8.00332C7.34785 7.91953 7.2748 7.85938 7.19101 7.85938H1.5707C1.48691 7.85938 1.41387 7.91953 1.40098 8.00332L0.537305 13.3314C0.535156 13.34 0.535156 13.3508 0.535156 13.3594C0.535156 13.4539 0.6125 13.5312 0.707031 13.5312H8.05469C8.06328 13.5312 8.07402 13.5313 8.08262 13.5291C8.17715 13.5141 8.23945 13.426 8.22441 13.3314L7.36074 8.00332ZM5.34766 6.14062H12.6953C12.7039 6.14062 12.7146 6.14062 12.7232 6.13848C12.8178 6.12344 12.8801 6.03535 12.865 5.94082L12.0014 0.612695C11.9885 0.528906 11.9154 0.46875 11.8316 0.46875H6.21133C6.12754 0.46875 6.05449 0.528906 6.0416 0.612695L5.17793 5.94082C5.17578 5.94941 5.17578 5.96016 5.17578 5.96875C5.17578 6.06328 5.25312 6.14062 5.34766 6.14062Z" fill="#89BF19"/>
</svg>
