<svg width="20" height="19" viewBox="0 0 20 19" fill="none" xmlns="http://www.w3.org/2000/svg">
<path d="M17.25 7.16667V6.25L11.75 0.75H2.58333C1.56583 0.75 0.75 1.56583 0.75 2.58333V15.4167C0.75 15.9029 0.943154 16.3692 1.28697 16.713C1.63079 17.0568 2.0971 17.25 2.58333 17.25H8.08333V15.5358L15.7742 7.845C16.1775 7.44167 16.6908 7.22167 17.25 7.16667ZM10.8333 2.125L15.875 7.16667H10.8333V2.125ZM18.9458 11.0075L18.0475 11.9058L16.1775 10.0358L17.0758 9.1375C17.25 8.95417 17.5525 8.95417 17.7358 9.1375L18.9458 10.3475C19.1292 10.5308 19.1292 10.8333 18.9458 11.0075ZM15.5358 10.6775L17.4058 12.5475L11.7867 18.1667H9.91667V16.2967L15.5358 10.6775Z" fill="#89BF19"/>
</svg>
