<svg width="18" height="18" viewBox="0 0 18 18" fill="none" xmlns="http://www.w3.org/2000/svg">
<path d="M1.66667 17.25C1.40695 17.25 1.18909 17.162 1.01309 16.986C0.837086 16.81 0.749392 16.5924 0.750003 16.3333C0.750003 16.0736 0.838003 15.8558 1.014 15.6798C1.19 15.5038 1.40756 15.4161 1.66667 15.4167H2.58334V9.91667H1.66667C1.40695 9.91667 1.18909 9.82867 1.01309 9.65267C0.837086 9.47667 0.749392 9.25911 0.750003 9C0.750003 8.74028 0.838003 8.52242 1.014 8.34642C1.19 8.17042 1.40756 8.08273 1.66667 8.08334H2.58334V2.58334H1.66667C1.40695 2.58334 1.18909 2.49534 1.01309 2.31934C0.837086 2.14334 0.749392 1.92578 0.750003 1.66667C0.750003 1.40695 0.838003 1.18909 1.014 1.01309C1.19 0.837086 1.40756 0.749392 1.66667 0.750003H16.3333C16.5931 0.750003 16.8109 0.838003 16.9869 1.014C17.1629 1.19 17.2506 1.40756 17.25 1.66667C17.25 1.92639 17.162 2.14425 16.986 2.32025C16.81 2.49625 16.5924 2.58395 16.3333 2.58334H15.4167V8.08334H16.3333C16.5931 8.08334 16.8109 8.17134 16.9869 8.34734C17.1629 8.52334 17.2506 8.74089 17.25 9C17.25 9.25973 17.162 9.47759 16.986 9.65359C16.81 9.82959 16.5924 9.91728 16.3333 9.91667H15.4167V15.4167H16.3333C16.5931 15.4167 16.8109 15.5047 16.9869 15.6807C17.1629 15.8567 17.2506 16.0742 17.25 16.3333C17.25 16.5931 17.162 16.8109 16.986 16.9869C16.81 17.1629 16.5924 17.2506 16.3333 17.25H1.66667ZM9 12.6667C9.76389 12.6667 10.4132 12.403 10.9479 11.8756C11.4826 11.3482 11.75 10.7105 11.75 9.9625C11.75 9.36667 11.578 8.85486 11.2339 8.42709C10.8899 7.99931 10.1452 7.12084 9 5.79167C7.85417 7.10556 7.10923 7.98036 6.76517 8.41609C6.42111 8.85181 6.24939 9.36728 6.25 9.9625C6.25 10.7111 6.51736 11.3488 7.05209 11.8756C7.58681 12.4024 8.23611 12.6661 9 12.6667Z" fill="#89BF19"/>
</svg>
