<svg width="437" height="320" viewBox="0 0 437 320" fill="none" xmlns="http://www.w3.org/2000/svg">
<rect width="437" height="320" rx="45" fill="#101116"/>
<path d="M331 159.5C331 179.837 325.488 199.793 315.049 217.246C304.61 234.699 289.636 248.996 271.719 258.616C253.801 268.237 233.611 272.82 213.297 271.88C192.982 270.939 173.302 264.509 156.35 253.275L218.5 159.5H331Z" fill="#40F771"/>
<path d="M151.479 249.857C134.091 236.96 120.794 219.32 113.182 199.053C105.571 178.786 103.969 156.754 108.568 135.599L218.5 159.5L151.479 249.857Z" fill="#7B43F1"/>
<path d="M110.46 128.137C113.675 117.064 118.572 106.551 124.981 96.9665L218.5 159.5L110.46 128.137Z" fill="#4C5EFB"/>
<path d="M128.875 91.5025C141.974 74.237 159.782 61.1226 180.156 53.736C200.531 46.3494 222.605 45.005 243.725 49.8645L218.5 159.5L128.875 91.5025Z" fill="#555D84"/>
<path d="M251.147 51.841C273.204 58.5295 292.673 71.8311 306.923 89.9467C321.173 108.062 329.514 130.117 330.82 153.129L218.5 159.5L251.147 51.841Z" fill="#FAD169"/>
<circle cx="219" cy="160" r="95" fill="#101116"/>
<path d="M152.38 163.82L148.44 166.4V164.76L152.4 162.02H154.12V175H152.38V163.82ZM159.042 172.68C159.042 172.307 159.102 171.96 159.222 171.64C159.355 171.307 159.522 171.027 159.722 170.8C159.882 170.613 160.122 170.413 160.442 170.2C160.775 169.973 161.088 169.787 161.382 169.64C161.635 169.507 161.968 169.353 162.382 169.18L164.542 168.22C165.395 167.847 165.822 167.267 165.822 166.48V164.7C165.822 164.087 165.635 163.68 165.262 163.48C164.888 163.267 164.235 163.16 163.302 163.16C162.382 163.16 161.115 163.3 159.502 163.58V162.18C160.848 161.927 162.242 161.8 163.682 161.8C165.122 161.8 166.162 162.02 166.802 162.46C167.442 162.887 167.762 163.607 167.762 164.62V166.74C167.762 167.22 167.682 167.62 167.522 167.94C167.362 168.247 167.102 168.527 166.742 168.78C166.395 169.02 165.882 169.293 165.202 169.6L162.202 170.98C161.322 171.38 160.882 171.967 160.882 172.74V173.6H167.762V175H159.042V172.68ZM174.763 175.2C173.683 175.2 172.41 175.08 170.943 174.84V173.4C172.49 173.72 173.783 173.88 174.823 173.88C175.636 173.88 176.23 173.767 176.603 173.54C176.99 173.3 177.183 172.913 177.183 172.38V169.8C177.183 169.24 176.943 168.88 176.463 168.72C176.236 168.653 176.023 168.613 175.823 168.6C175.636 168.573 175.39 168.56 175.083 168.56H171.243V162.02H178.723V163.38H173.043V167.32H176.043C176.576 167.32 177.05 167.387 177.463 167.52C177.876 167.64 178.243 167.853 178.563 168.16C178.896 168.493 179.063 168.927 179.063 169.46V172.42C179.063 172.887 178.976 173.3 178.803 173.66C178.643 174.007 178.423 174.28 178.143 174.48C177.89 174.667 177.563 174.82 177.163 174.94C176.776 175.06 176.39 175.133 176.003 175.16C175.523 175.187 175.11 175.2 174.763 175.2ZM182.505 172.84H184.625L182.745 177.24H181.585L182.505 172.84ZM191.482 175.2C190.402 175.2 189.129 175.08 187.662 174.84V173.4C189.209 173.72 190.502 173.88 191.542 173.88C192.355 173.88 192.949 173.767 193.322 173.54C193.709 173.3 193.902 172.913 193.902 172.38V169.8C193.902 169.24 193.662 168.88 193.182 168.72C192.955 168.653 192.742 168.613 192.542 168.6C192.355 168.573 192.109 168.56 191.802 168.56H187.962V162.02H195.442V163.38H189.762V167.32H192.762C193.295 167.32 193.769 167.387 194.182 167.52C194.595 167.64 194.962 167.853 195.282 168.16C195.615 168.493 195.782 168.927 195.782 169.46V172.42C195.782 172.887 195.695 173.3 195.522 173.66C195.362 174.007 195.142 174.28 194.862 174.48C194.609 174.667 194.282 174.82 193.882 174.94C193.495 175.06 193.109 175.133 192.722 175.16C192.242 175.187 191.829 175.2 191.482 175.2ZM203.303 175.2C202.717 175.2 202.243 175.18 201.883 175.14C201.523 175.1 201.15 175.02 200.763 174.9C200.35 174.78 200.023 174.607 199.783 174.38C199.543 174.14 199.343 173.807 199.183 173.38C199.023 172.953 198.943 172.453 198.943 171.88V165.32C198.943 164.72 199.037 164.193 199.223 163.74C199.423 163.287 199.677 162.927 199.983 162.66C200.25 162.433 200.61 162.253 201.063 162.12C201.517 161.973 201.97 161.88 202.423 161.84C202.93 161.813 203.39 161.8 203.803 161.8C204.617 161.8 205.71 161.86 207.083 161.98V163.34C205.71 163.167 204.53 163.08 203.543 163.08C202.797 163.08 202.23 163.133 201.843 163.24C201.457 163.347 201.17 163.56 200.983 163.88C200.81 164.187 200.723 164.653 200.723 165.28V167.32H203.663C204.33 167.32 204.83 167.333 205.163 167.36C205.497 167.387 205.85 167.44 206.223 167.52C206.597 167.6 206.87 167.733 207.043 167.92C207.23 168.107 207.39 168.373 207.523 168.72C207.643 169.053 207.703 169.473 207.703 169.98V171.88C207.703 173.32 207.25 174.253 206.343 174.68C205.903 174.88 205.463 175.013 205.023 175.08C204.583 175.16 204.01 175.2 203.303 175.2ZM203.343 174.02C204.05 174.02 204.577 173.973 204.923 173.88C205.283 173.773 205.537 173.58 205.683 173.3C205.843 173.007 205.923 172.567 205.923 171.98V170.04C205.923 169.6 205.857 169.273 205.723 169.06C205.59 168.833 205.343 168.68 204.983 168.6C204.623 168.52 204.07 168.48 203.323 168.48H200.723V171.98C200.723 172.567 200.803 173.007 200.963 173.3C201.123 173.58 201.383 173.773 201.743 173.88C202.103 173.973 202.637 174.02 203.343 174.02ZM214.685 175.2C213.605 175.2 212.332 175.08 210.865 174.84V173.4C212.412 173.72 213.705 173.88 214.745 173.88C215.558 173.88 216.152 173.767 216.525 173.54C216.912 173.3 217.105 172.913 217.105 172.38V169.8C217.105 169.24 216.865 168.88 216.385 168.72C216.158 168.653 215.945 168.613 215.745 168.6C215.558 168.573 215.312 168.56 215.005 168.56H211.165V162.02H218.645V163.38H212.965V167.32H215.965C216.498 167.32 216.972 167.387 217.385 167.52C217.798 167.64 218.165 167.853 218.485 168.16C218.818 168.493 218.985 168.927 218.985 169.46V172.42C218.985 172.887 218.898 173.3 218.725 173.66C218.565 174.007 218.345 174.28 218.065 174.48C217.812 174.667 217.485 174.82 217.085 174.94C216.698 175.06 216.312 175.133 215.925 175.16C215.445 175.187 215.032 175.2 214.685 175.2ZM222.127 172.84H224.447V175H222.127V172.84ZM231.624 175.2C229.997 175.2 228.824 175.007 228.104 174.62C227.384 174.22 227.024 173.567 227.024 172.66V170.24C227.024 169.72 227.224 169.287 227.624 168.94C228.037 168.58 228.584 168.32 229.264 168.16V168.08C228.664 167.947 228.21 167.733 227.904 167.44C227.61 167.147 227.464 166.74 227.464 166.22V164.2C227.464 163.827 227.524 163.507 227.644 163.24C227.764 162.973 227.964 162.72 228.244 162.48C228.817 162.027 229.944 161.8 231.624 161.8C233.304 161.8 234.43 162.027 235.004 162.48C235.284 162.72 235.484 162.973 235.604 163.24C235.724 163.507 235.784 163.827 235.784 164.2V166.22C235.784 166.74 235.637 167.147 235.344 167.44C235.05 167.733 234.604 167.947 234.004 168.08V168.16C234.684 168.32 235.224 168.58 235.624 168.94C236.037 169.287 236.244 169.72 236.244 170.24V172.62C236.244 173.553 235.884 174.22 235.164 174.62C234.457 175.007 233.277 175.2 231.624 175.2ZM231.624 167.72C232.504 167.72 233.11 167.627 233.444 167.44C233.79 167.253 233.964 166.907 233.964 166.4V164.3C233.964 163.807 233.784 163.46 233.424 163.26C233.064 163.06 232.464 162.96 231.624 162.96C230.784 162.96 230.184 163.06 229.824 163.26C229.464 163.46 229.284 163.807 229.284 164.3V166.4C229.284 166.907 229.45 167.253 229.784 167.44C230.13 167.627 230.744 167.72 231.624 167.72ZM231.624 174.04C232.597 174.04 233.284 173.94 233.684 173.74C234.084 173.54 234.284 173.2 234.284 172.72V170.3C234.284 169.62 233.997 169.193 233.424 169.02C233.144 168.94 232.884 168.893 232.644 168.88C232.404 168.853 232.064 168.84 231.624 168.84C231.184 168.84 230.85 168.853 230.624 168.88C230.397 168.893 230.137 168.94 229.844 169.02C229.257 169.193 228.964 169.62 228.964 170.3V172.72C228.964 173.2 229.164 173.54 229.564 173.74C229.964 173.94 230.65 174.04 231.624 174.04ZM246.125 163.32H238.685V162.02H247.805V163.32L242.845 175H240.925L246.125 163.32ZM260.396 175.2C259.69 175.2 259.07 175.153 258.536 175.06C258.016 174.967 257.503 174.807 256.996 174.58C256.463 174.34 256.05 173.973 255.756 173.48C255.476 172.987 255.336 172.387 255.336 171.68V162.02H257.196V171.66C257.196 172.473 257.47 173.053 258.016 173.4C258.563 173.733 259.37 173.9 260.436 173.9C261.503 173.9 262.296 173.733 262.816 173.4C263.35 173.053 263.616 172.473 263.616 171.66V162.02H265.476V171.68C265.476 174.027 263.783 175.2 260.396 175.2ZM272.592 175.2C271.485 175.2 270.165 175.093 268.632 174.88V173.26C270.179 173.593 271.539 173.76 272.712 173.76C273.699 173.76 274.419 173.653 274.872 173.44C275.325 173.213 275.552 172.8 275.552 172.2V170.52C275.552 169.96 275.392 169.567 275.072 169.34C274.752 169.113 274.192 169 273.392 169H271.872C270.605 169 269.705 168.747 269.172 168.24C268.639 167.733 268.372 166.947 268.372 165.88V164.84C268.372 164.133 268.525 163.56 268.832 163.12C269.152 162.68 269.679 162.353 270.412 162.14C271.159 161.927 272.179 161.82 273.472 161.82C274.339 161.82 275.452 161.893 276.812 162.04V163.5C275.292 163.273 274.132 163.16 273.332 163.16C272.092 163.16 271.272 163.28 270.872 163.52C270.459 163.773 270.252 164.193 270.252 164.78V166.26C270.252 166.713 270.412 167.047 270.732 167.26C271.065 167.46 271.632 167.56 272.432 167.56H273.992C274.885 167.56 275.579 167.667 276.072 167.88C276.579 168.093 276.932 168.42 277.132 168.86C277.345 169.287 277.452 169.867 277.452 170.6V171.54C277.452 172.46 277.279 173.187 276.932 173.72C276.599 174.253 276.079 174.633 275.372 174.86C274.665 175.087 273.739 175.2 272.592 175.2ZM280.239 162.02H285.399C289.039 162.02 290.859 163.26 290.859 165.74V171.48C290.859 173.827 289.045 175 285.419 175H280.239V162.02ZM285.279 173.68C287.759 173.68 288.999 172.933 288.999 171.44V165.72C288.999 165.24 288.899 164.833 288.699 164.5C288.499 164.167 288.219 163.92 287.859 163.76C287.499 163.613 287.125 163.513 286.739 163.46C286.352 163.393 285.899 163.36 285.379 163.36H282.179V173.68H285.279Z" fill="white"/>
<path d="M188.928 145.028H186.288V144.212H192.732V145.028H190.104V152H188.928V145.028ZM196.416 152.12C195.904 152.12 195.52 152.1 195.264 152.06C195.008 152.028 194.752 151.952 194.496 151.832C194.232 151.712 194.04 151.52 193.92 151.256C193.8 150.984 193.74 150.62 193.74 150.164V148.148C193.74 147.788 193.784 147.472 193.872 147.2C193.96 146.928 194.076 146.716 194.22 146.564C194.34 146.428 194.52 146.324 194.76 146.252C195.008 146.172 195.26 146.12 195.516 146.096C195.804 146.08 196.104 146.072 196.416 146.072C196.832 146.072 197.144 146.084 197.352 146.108C197.568 146.124 197.796 146.164 198.036 146.228C198.284 146.3 198.476 146.408 198.612 146.552C198.748 146.696 198.864 146.904 198.96 147.176C199.048 147.456 199.092 147.78 199.092 148.148V150.164C199.092 150.844 198.936 151.34 198.624 151.652C198.496 151.78 198.312 151.88 198.072 151.952C197.832 152.024 197.584 152.072 197.328 152.096C197.024 152.112 196.72 152.12 196.416 152.12ZM196.416 151.412C196.752 151.412 196.996 151.404 197.148 151.388C197.3 151.372 197.448 151.328 197.592 151.256C197.736 151.192 197.836 151.088 197.892 150.944C197.956 150.792 197.988 150.584 197.988 150.32V147.968C197.988 147.608 197.944 147.348 197.856 147.188C197.768 147.02 197.616 146.912 197.4 146.864C197.192 146.808 196.864 146.78 196.416 146.78C195.968 146.78 195.636 146.808 195.42 146.864C195.212 146.912 195.064 147.02 194.976 147.188C194.888 147.348 194.844 147.608 194.844 147.968V150.32C194.844 150.584 194.872 150.792 194.928 150.944C194.992 151.088 195.096 151.192 195.24 151.256C195.384 151.328 195.532 151.372 195.684 151.388C195.836 151.404 196.08 151.412 196.416 151.412ZM203.212 152.12C202.716 152.12 202.328 152.068 202.048 151.964C201.768 151.852 201.564 151.668 201.436 151.412C201.316 151.148 201.256 150.78 201.256 150.308V146.9H199.96V146.192H201.256V144.392H202.348V146.192H204.424V146.9H202.348V150.368C202.348 150.656 202.38 150.872 202.444 151.016C202.516 151.16 202.636 151.264 202.804 151.328C202.98 151.384 203.232 151.412 203.56 151.412C203.664 151.412 203.952 151.38 204.424 151.316V152.024C204.016 152.088 203.612 152.12 203.212 152.12ZM207.392 152.12C206.84 152.12 206.412 152.068 206.108 151.964C205.812 151.86 205.596 151.676 205.46 151.412C205.332 151.148 205.268 150.768 205.268 150.272C205.268 149.832 205.328 149.492 205.448 149.252C205.576 149.004 205.788 148.828 206.084 148.724C206.388 148.62 206.816 148.568 207.368 148.568H209.108V147.644C209.108 147.428 209.064 147.264 208.976 147.152C208.896 147.032 208.756 146.948 208.556 146.9C208.364 146.852 208.08 146.828 207.704 146.828C207.104 146.828 206.44 146.876 205.712 146.972V146.18C206.504 146.108 207.22 146.072 207.86 146.072C208.532 146.072 209.028 146.124 209.348 146.228C209.668 146.324 209.888 146.496 210.008 146.744C210.128 146.992 210.188 147.376 210.188 147.896V152H209.144V151.448C209.056 151.896 208.472 152.12 207.392 152.12ZM207.572 151.412C207.964 151.412 208.296 151.384 208.568 151.328C208.928 151.256 209.108 151.088 209.108 150.824V149.24H207.44C207.096 149.24 206.848 149.268 206.696 149.324C206.544 149.372 206.444 149.468 206.396 149.612C206.348 149.756 206.324 149.988 206.324 150.308C206.324 150.596 206.352 150.82 206.408 150.98C206.464 151.132 206.564 151.244 206.708 151.316C206.852 151.38 207.068 151.412 207.356 151.412H207.572ZM212.061 143.6H213.141V152H212.061V143.6ZM219.568 152.12C219.016 152.12 218.588 152.068 218.284 151.964C217.988 151.86 217.772 151.676 217.636 151.412C217.508 151.148 217.444 150.768 217.444 150.272C217.444 149.832 217.504 149.492 217.624 149.252C217.752 149.004 217.964 148.828 218.26 148.724C218.564 148.62 218.992 148.568 219.544 148.568H221.284V147.644C221.284 147.428 221.24 147.264 221.152 147.152C221.072 147.032 220.932 146.948 220.732 146.9C220.54 146.852 220.256 146.828 219.88 146.828C219.28 146.828 218.616 146.876 217.888 146.972V146.18C218.68 146.108 219.396 146.072 220.036 146.072C220.708 146.072 221.204 146.124 221.524 146.228C221.844 146.324 222.064 146.496 222.184 146.744C222.304 146.992 222.364 147.376 222.364 147.896V152H221.32V151.448C221.232 151.896 220.648 152.12 219.568 152.12ZM219.748 151.412C220.14 151.412 220.472 151.384 220.744 151.328C221.104 151.256 221.284 151.088 221.284 150.824V149.24H219.616C219.272 149.24 219.024 149.268 218.872 149.324C218.72 149.372 218.62 149.468 218.572 149.612C218.524 149.756 218.5 149.988 218.5 150.308C218.5 150.596 218.528 150.82 218.584 150.98C218.64 151.132 218.74 151.244 218.884 151.316C219.028 151.38 219.244 151.412 219.532 151.412H219.748ZM226.013 152.12C225.397 152.12 224.733 152.072 224.021 151.976V151.148C224.957 151.3 225.629 151.376 226.037 151.376C226.549 151.376 226.917 151.328 227.141 151.232C227.365 151.128 227.477 150.94 227.477 150.668V150.08C227.477 149.832 227.393 149.656 227.225 149.552C227.057 149.448 226.785 149.396 226.409 149.396H225.749C225.149 149.396 224.689 149.272 224.369 149.024C224.057 148.776 223.901 148.428 223.901 147.98V147.44C223.901 146.528 224.765 146.072 226.493 146.072C226.621 146.072 227.209 146.104 228.257 146.168V146.948C227.545 146.836 226.941 146.78 226.445 146.78C225.877 146.78 225.489 146.836 225.281 146.948C225.073 147.06 224.969 147.248 224.969 147.512V148.004C224.969 148.396 225.325 148.592 226.037 148.592H226.709C227.933 148.592 228.545 149.048 228.545 149.96V150.464C228.545 151.064 228.337 151.492 227.921 151.748C227.505 151.996 226.869 152.12 226.013 152.12ZM231.814 152.12C231.198 152.12 230.534 152.072 229.822 151.976V151.148C230.758 151.3 231.43 151.376 231.838 151.376C232.35 151.376 232.718 151.328 232.942 151.232C233.166 151.128 233.278 150.94 233.278 150.668V150.08C233.278 149.832 233.194 149.656 233.026 149.552C232.858 149.448 232.586 149.396 232.21 149.396H231.55C230.95 149.396 230.49 149.272 230.17 149.024C229.858 148.776 229.702 148.428 229.702 147.98V147.44C229.702 146.528 230.566 146.072 232.294 146.072C232.422 146.072 233.01 146.104 234.058 146.168V146.948C233.346 146.836 232.742 146.78 232.246 146.78C231.678 146.78 231.29 146.836 231.082 146.948C230.874 147.06 230.77 147.248 230.77 147.512V148.004C230.77 148.396 231.126 148.592 231.838 148.592H232.51C233.734 148.592 234.346 149.048 234.346 149.96V150.464C234.346 151.064 234.138 151.492 233.722 151.748C233.306 151.996 232.67 152.12 231.814 152.12ZM238.286 152.12C236.51 152.12 235.622 151.528 235.622 150.344V148.052C235.622 147.348 235.822 146.844 236.222 146.54C236.63 146.228 237.286 146.072 238.19 146.072C239.046 146.072 239.662 146.22 240.038 146.516C240.422 146.812 240.614 147.324 240.614 148.052V149.336H236.714V150.212C236.714 150.612 236.854 150.9 237.134 151.076C237.414 151.252 237.846 151.34 238.43 151.34C238.982 151.34 239.634 151.244 240.386 151.052V151.88C239.65 152.04 238.95 152.12 238.286 152.12ZM239.534 148.628V147.716C239.534 147.364 239.426 147.124 239.21 146.996C239.002 146.86 238.642 146.792 238.13 146.792C237.634 146.792 237.274 146.86 237.05 146.996C236.826 147.124 236.714 147.364 236.714 147.716V148.628H239.534ZM244.696 152.12C244.2 152.12 243.812 152.068 243.532 151.964C243.252 151.852 243.048 151.668 242.92 151.412C242.8 151.148 242.74 150.78 242.74 150.308V146.9H241.444V146.192H242.74V144.392H243.832V146.192H245.908V146.9H243.832V150.368C243.832 150.656 243.864 150.872 243.928 151.016C244 151.16 244.12 151.264 244.288 151.328C244.464 151.384 244.716 151.412 245.044 151.412C245.148 151.412 245.436 151.38 245.908 151.316V152.024C245.5 152.088 245.096 152.12 244.696 152.12ZM248.864 152.12C248.248 152.12 247.584 152.072 246.872 151.976V151.148C247.808 151.3 248.48 151.376 248.888 151.376C249.4 151.376 249.768 151.328 249.992 151.232C250.216 151.128 250.328 150.94 250.328 150.668V150.08C250.328 149.832 250.244 149.656 250.076 149.552C249.908 149.448 249.636 149.396 249.26 149.396H248.6C248 149.396 247.54 149.272 247.22 149.024C246.908 148.776 246.752 148.428 246.752 147.98V147.44C246.752 146.528 247.616 146.072 249.344 146.072C249.472 146.072 250.06 146.104 251.108 146.168V146.948C250.396 146.836 249.792 146.78 249.296 146.78C248.728 146.78 248.34 146.836 248.132 146.948C247.924 147.06 247.82 147.248 247.82 147.512V148.004C247.82 148.396 248.176 148.592 248.888 148.592H249.56C250.784 148.592 251.396 149.048 251.396 149.96V150.464C251.396 151.064 251.188 151.492 250.772 151.748C250.356 151.996 249.72 152.12 248.864 152.12Z" fill="#79809E"/>
</svg>
