<svg width="60" height="84" viewBox="0 0 60 84" fill="none" xmlns="http://www.w3.org/2000/svg">
<path d="M4.99992 71.1668H9.16659V83.6668H17.4999V71.1668H21.6666C22.7717 71.1668 23.8315 70.7279 24.6129 69.9464C25.3943 69.165 25.8333 68.1052 25.8333 67.0002V17.0002C25.8333 15.8951 25.3943 14.8353 24.6129 14.0539C23.8315 13.2725 22.7717 12.8335 21.6666 12.8335H17.4999V0.333496H9.16659V12.8335H4.99992C3.89485 12.8335 2.83504 13.2725 2.05364 14.0539C1.27224 14.8353 0.833252 15.8951 0.833252 17.0002V67.0002C0.833252 68.1052 1.27224 69.165 2.05364 69.9464C2.83504 70.7279 3.89485 71.1668 4.99992 71.1668ZM9.16659 21.1668H17.4999V62.8335H9.16659V21.1668ZM38.3333 62.8335H42.4999V75.3335H50.8333V62.8335H54.9999C56.105 62.8335 57.1648 62.3945 57.9462 61.6131C58.7276 60.8317 59.1666 59.7719 59.1666 58.6668V25.3335C59.1666 24.2284 58.7276 23.1686 57.9462 22.3872C57.1648 21.6058 56.105 21.1668 54.9999 21.1668H50.8333V8.66683H42.4999V21.1668H38.3333C37.2282 21.1668 36.1684 21.6058 35.387 22.3872C34.6056 23.1686 34.1666 24.2284 34.1666 25.3335V58.6668C34.1666 59.7719 34.6056 60.8317 35.387 61.6131C36.1684 62.3945 37.2282 62.8335 38.3333 62.8335ZM42.4999 29.5002H50.8333V54.5002H42.4999V29.5002Z" fill="#89BF19"/>
</svg>
