<svg width="83" height="84" viewBox="0 0 83 84" fill="none" xmlns="http://www.w3.org/2000/svg">
<path d="M16.5208 41.6251L6.83333 37.4584C5.44444 36.9029 4.62778 35.8959 4.38333 34.4376C4.13889 32.9793 4.53889 31.7293 5.58333 30.6876L18.7083 17.5626C19.6806 16.5904 20.8264 15.8959 22.1458 15.4793C23.4653 15.0626 24.8194 14.9932 26.2083 15.2709L31.625 16.4168C27.9444 20.7918 25.0111 24.7682 22.825 28.3459C20.6389 31.9237 18.5375 36.3501 16.5208 41.6251ZM77.7708 1.0001C78.3264 1.0001 78.882 1.13899 79.4375 1.41677C79.9931 1.69455 80.4792 2.04177 80.8958 2.45844C81.3125 2.8751 81.6597 3.36121 81.9375 3.91677C82.2153 4.47233 82.3542 5.02788 82.3542 5.58344C82.632 12.0418 81.2611 18.7432 78.2417 25.6876C75.2222 32.632 70.9681 38.8473 65.4792 44.3334C61.7292 48.0834 58.1181 51.0876 54.6458 53.3459C51.1736 55.6043 47.0764 57.739 42.3542 59.7501C41.4514 60.0973 40.5319 60.2709 39.5958 60.2709C38.6597 60.2709 37.8431 59.9237 37.1458 59.2293L24.125 46.2084C23.4306 45.514 23.0833 44.6973 23.0833 43.7584C23.0833 42.8195 23.2569 41.9001 23.6042 41.0001C25.6181 36.3473 27.7542 32.2668 30.0125 28.7584C32.2708 25.2501 35.2736 21.6223 39.0208 17.8751C44.5069 12.389 50.7222 8.13483 57.6667 5.1126C64.6111 2.09038 71.3125 0.719548 77.7708 1.0001ZM51.3125 32.0418C52.9097 33.639 54.8722 34.4376 57.2 34.4376C59.5278 34.4376 61.4889 33.639 63.0833 32.0418C64.6806 30.4445 65.4792 28.4834 65.4792 26.1584C65.4792 23.8334 64.6806 21.8709 63.0833 20.2709C61.4861 18.6737 59.5236 17.8751 57.1958 17.8751C54.8681 17.8751 52.9069 18.6737 51.3125 20.2709C49.7153 21.8682 48.9167 23.8307 48.9167 26.1584C48.9167 28.4862 49.7153 30.4473 51.3125 32.0418ZM41.7292 66.8334C47.0069 64.8196 51.4514 62.7196 55.0625 60.5334C58.6736 58.3473 62.6667 55.4126 67.0417 51.7293L68.0833 57.1459C68.3611 58.5348 68.2917 59.9071 67.875 61.2626C67.4583 62.6182 66.7639 63.7807 65.7917 64.7501L52.6667 77.8751C51.625 78.9168 50.375 79.2987 48.9167 79.0209C47.4583 78.7432 46.4514 77.9098 45.8958 76.5209L41.7292 66.8334ZM7.875 57.8543C10.3056 55.4376 13.2639 54.2112 16.75 54.1751C20.2361 54.1418 23.1875 55.3404 25.6042 57.7709C28.0208 60.2015 29.2292 63.1529 29.2292 66.6251C29.2292 70.0973 28.0139 73.0487 25.5833 75.4793C23.8472 77.2154 20.9486 78.7084 16.8875 79.9584C12.8264 81.2084 7.21806 82.3195 0.0625 83.2918C1.03472 76.139 2.14583 70.5418 3.39583 66.5001C4.64583 62.4612 6.13889 59.5793 7.875 57.8543Z" fill="#89BF19"/>
</svg>
