<svg width="84" height="84" viewBox="0 0 84 84" fill="none" xmlns="http://www.w3.org/2000/svg">
<path d="M79.4999 37.729V25.3332C79.4999 23.1231 78.6219 21.0035 77.0591 19.4406C75.4963 17.8778 73.3767 16.9999 71.1666 16.9999H46.1666V11.5332C47.4374 10.3915 48.2499 8.74987 48.2499 6.9082C48.2499 5.2506 47.5914 3.66089 46.4193 2.48879C45.2472 1.31668 43.6575 0.658203 41.9999 0.658203C40.3423 0.658203 38.7526 1.31668 37.5805 2.48879C36.4084 3.66089 35.7499 5.2506 35.7499 6.9082C35.7499 8.74987 36.5624 10.3915 37.8333 11.5332V16.9999H12.8333C10.6231 16.9999 8.5035 17.8778 6.9407 19.4406C5.37789 21.0035 4.49992 23.1231 4.49992 25.3332V37.8249L4.19992 37.8457C3.14945 37.9206 2.1664 38.3908 1.44888 39.1617C0.731352 39.9325 0.332698 40.9467 0.333253 41.9999V50.3332C0.333253 51.4383 0.772239 52.4981 1.55364 53.2795C2.33504 54.0609 3.39485 54.4999 4.49992 54.4999V75.3332C4.49992 77.5434 5.37789 79.663 6.9407 81.2258C8.5035 82.7886 10.6231 83.6665 12.8333 83.6665H71.1666C73.3767 83.6665 75.4963 82.7886 77.0591 81.2258C78.6219 79.663 79.4999 77.5434 79.4999 75.3332V54.4999C80.605 54.4999 81.6648 54.0609 82.4462 53.2795C83.2276 52.4981 83.6666 51.4383 83.6666 50.3332V42.2582C83.7149 41.6116 83.6122 40.9625 83.3666 40.3624C82.5249 38.329 80.7208 37.8415 79.4999 37.729ZM21.1666 41.9999C21.1666 37.3999 23.9666 33.6665 27.4166 33.6665C30.8666 33.6665 33.6666 37.3999 33.6666 41.9999C33.6666 46.5999 30.8666 50.3332 27.4166 50.3332C23.9666 50.3332 21.1666 46.5999 21.1666 41.9999ZM58.6583 66.9999C54.4874 66.9874 25.3333 66.9999 25.3333 66.9999V58.6665C25.3333 58.6665 54.5041 58.6582 58.6749 58.6665L58.6583 66.9999ZM56.5833 50.3332C53.1333 50.3332 50.3333 46.5999 50.3333 41.9999C50.3333 37.3999 53.1333 33.6665 56.5833 33.6665C60.0333 33.6665 62.8333 37.3999 62.8333 41.9999C62.8333 46.5999 60.0333 50.3332 56.5833 50.3332Z" fill="#89BF19"/>
</svg>
