<svg width="84" height="76" viewBox="0 0 84 76" fill="none" xmlns="http://www.w3.org/2000/svg">
<path d="M16.9999 58.8333H37.8333V50.5H16.9999V58.8333ZM58.6666 58.8333H66.9999V50.5H58.6666V58.8333ZM16.9999 42.1667H37.8333V33.8333H16.9999V42.1667ZM58.6666 42.1667H66.9999V17.1667H58.6666V42.1667ZM16.9999 25.5H37.8333V17.1667H16.9999V25.5ZM8.66659 75.5C6.37493 75.5 4.41243 74.6833 2.77909 73.05C1.14576 71.4167 0.330481 69.4556 0.333259 67.1667V8.83334C0.333259 6.54167 1.14993 4.57917 2.78326 2.94584C4.41659 1.31251 6.3777 0.497229 8.66659 0.500007H75.3333C77.6249 0.500007 79.5874 1.31667 81.2208 2.95001C82.8541 4.58334 83.6694 6.54445 83.6666 8.83334V67.1667C83.6666 69.4583 82.8499 71.4208 81.2166 73.0542C79.5833 74.6875 77.6222 75.5028 75.3333 75.5H8.66659Z" fill="#89BF19"/>
</svg>
